<?xml version="1.0" encoding="utf-8"?>
<!-- Generator: Adobe Illustrator 16.0.0, SVG Export Plug-In . SVG Version: 6.00 Build 0)  -->
<!DOCTYPE svg PUBLIC "-//W3C//DTD SVG 1.1//EN" "http://www.w3.org/Graphics/SVG/1.1/DTD/svg11.dtd">
<svg version="1.1" id="Calque_1" xmlns="http://www.w3.org/2000/svg" xmlns:xlink="http://www.w3.org/1999/xlink" x="0px" y="0px"
	 width="50px" height="50px" viewBox="0 0 50 50" enable-background="new 0 0 50 50" xml:space="preserve">
<g>
	<defs>
		<rect id="SVGID_1_" width="50" height="50"/>
	</defs>
	<clipPath id="SVGID_2_">
		<use xlink:href="#SVGID_1_"  overflow="visible"/>
	</clipPath>
	<path clip-path="url(#SVGID_2_)" fill="#FFFFFF" d="M41.029,26.116c0.006,0.64-0.514,1.155-1.151,1.15l-21.963,0.008
		c-0.637-0.001-0.787,0.365-0.342,0.808L28.12,38.531c0.452,0.445,0.304,0.805-0.327,0.811l-3.812-0.004
		c-0.633-0.002-1.514-0.361-1.959-0.813L9.304,25.815c-0.448-0.45-0.448-1.177-0.001-1.629l12.719-12.715
		c0.442-0.442,1.325-0.812,1.954-0.809h3.812c0.636,0.002,0.787,0.36,0.332,0.811L17.577,21.922
		c-0.45,0.449-0.294,0.807,0.342,0.807l21.964-0.004c0.631,0.004,1.149,0.523,1.15,1.156L41.029,26.116z M46,0H4C1.8,0,0,1.8,0,4v42
		C0,48.2,1.8,50,4,50h42c2.199,0,4-1.8,4-4V4C50,1.8,48.199,0,46,0"/>
</g>
</svg>
