<?xml version="1.0" encoding="utf-8"?>
<!-- Generator: Adobe Illustrator 16.0.0, SVG Export Plug-In . SVG Version: 6.00 Build 0)  -->
<!DOCTYPE svg PUBLIC "-//W3C//DTD SVG 1.1//EN" "http://www.w3.org/Graphics/SVG/1.1/DTD/svg11.dtd">
<svg version="1.1" id="Calque_1" xmlns="http://www.w3.org/2000/svg" xmlns:xlink="http://www.w3.org/1999/xlink" x="0px" y="0px"
	 width="80px" height="80px" viewBox="0 0 80 80" enable-background="new 0 0 80 80" xml:space="preserve">
<g>
	<path fill="#0D0D18" d="M55.635,27.088c0,0.7-0.568,1.267-1.268,1.267H44.223c-0.699,0-1.268-0.566-1.268-1.267
		c0-0.701,0.568-1.27,1.268-1.27h10.145C55.067,25.818,55.635,26.387,55.635,27.088z"/>
	<path fill="#0D0D18" d="M41,20.123l7.174-7.172c0.496-0.497,1.297-0.497,1.793-0.002c0.494,0.496,0.494,1.299,0,1.793l-7.174,7.174
		c-0.494,0.496-1.297,0.496-1.793,0C40.506,21.42,40.506,20.619,41,20.123z"/>
	<path fill="#0D0D18" d="M34.679,8.535c0-0.701,0.568-1.269,1.27-1.269c0.699,0,1.266,0.567,1.266,1.269V18.68
		c0,0.699-0.566,1.268-1.266,1.268c-0.701,0-1.27-0.566-1.27-1.268V8.535z"/>
	<path fill="#0D0D18" d="M28.341,27.957H18.196c-0.699,0-1.268-0.568-1.268-1.268c0-0.702,0.568-1.27,1.268-1.269h10.145
		c0.699,0,1.27,0.566,1.27,1.269C29.61,27.389,29.04,27.957,28.341,27.957z"/>
	<path fill="#0D0D18" d="M29.784,22.436l-7.172-7.174c-0.496-0.494-0.496-1.297,0-1.793c0.494-0.495,1.297-0.495,1.793,0.002
		l7.174,7.172c0.496,0.494,0.496,1.299,0,1.793C31.085,22.931,30.28,22.931,29.784,22.436z"/>
	<path fill="#0D0D18" d="M63.049,72.733H59.52l0.02-22.989c-0.002-0.441-0.172-0.828-0.502-1.143
		c-0.664-0.619-1.861-0.662-2.56,0.036c-0.344,0.345-0.533,0.79-0.533,1.253c0,0.084-0.006,0.165-0.016,0.242l0.016,4.297
		c0.004,0.471-0.18,0.914-0.512,1.25c-0.332,0.334-0.775,0.52-1.246,0.521c-0.977,0-1.768-0.79-1.771-1.762l-0.023-7.209
		c0-0.457-0.178-0.869-0.51-1.195c-0.342-0.328-0.795-0.51-1.277-0.51c-0.959,0.002-1.742,0.785-1.744,1.746v3.108
		c0,0.122-0.014,0.243-0.037,0.36l0.012,1.125c0.002,0.473-0.18,0.917-0.512,1.251c-0.334,0.335-0.777,0.517-1.248,0.519
		c-0.975,0-1.766-0.789-1.77-1.76l-0.018-7.184c-0.004-0.455-0.18-0.868-0.514-1.193c-0.34-0.328-0.793-0.51-1.273-0.51
		c-0.961,0.001-1.744,0.785-1.748,1.746v4.834c0,0.975-0.791,1.768-1.763,1.768c-0.975,0-1.766-0.793-1.766-1.768l0.004-4.954
		c-0.023-0.112-0.035-0.226-0.035-0.341L38.187,26.98c0-0.454-0.178-0.867-0.514-1.193c-0.338-0.328-0.791-0.51-1.273-0.51
		c-0.959,0.002-1.744,0.787-1.746,1.749l-0.068,45.707h-3.529l0.068-45.71c0-2.908,2.365-5.276,5.275-5.276
		c1.404,0,2.729,0.534,3.73,1.503c1.01,0.973,1.588,2.332,1.588,3.73l0.004,12.787c1.885-0.674,4.076-0.195,5.508,1.195
		c0.461,0.441,0.836,0.969,1.105,1.545c1.957-0.93,4.434-0.523,6,0.991c0.473,0.454,0.855,0.998,1.127,1.594
		c0.707-0.337,1.48-0.515,2.268-0.519c1.4,0,2.72,0.518,3.722,1.453c1.033,0.958,1.621,2.316,1.619,3.721L63.049,72.733z"/>
</g>
</svg>
