<?xml version="1.0" encoding="utf-8"?>
<!-- Generator: Adobe Illustrator 16.0.0, SVG Export Plug-In . SVG Version: 6.00 Build 0)  -->
<!DOCTYPE svg PUBLIC "-//W3C//DTD SVG 1.1//EN" "http://www.w3.org/Graphics/SVG/1.1/DTD/svg11.dtd">
<svg version="1.1" id="Calque_1" xmlns="http://www.w3.org/2000/svg" xmlns:xlink="http://www.w3.org/1999/xlink" x="0px" y="0px"
	 width="50px" height="50px" viewBox="0 0 50 50" enable-background="new 0 0 50 50" xml:space="preserve">
<g>
	<defs>
		<rect id="SVGID_1_" width="50" height="50"/>
	</defs>
	<clipPath id="SVGID_2_">
		<use xlink:href="#SVGID_1_"  overflow="visible"/>
	</clipPath>
	<path clip-path="url(#SVGID_2_)" fill="#FF2A1B" d="M8.971,23.884c-0.006-0.64,0.514-1.155,1.151-1.15l21.964-0.008
		c0.637,0.001,0.787-0.365,0.342-0.808L21.88,11.469c-0.452-0.445-0.304-0.805,0.327-0.811l3.812,0.004
		c0.633,0.002,1.514,0.361,1.959,0.813l12.718,12.709c0.448,0.45,0.448,1.177,0.001,1.629L27.979,38.529
		c-0.441,0.441-1.325,0.812-1.954,0.809h-3.812c-0.636-0.002-0.787-0.359-0.332-0.811l10.544-10.449
		c0.449-0.449,0.293-0.807-0.342-0.807l-21.965,0.004c-0.631-0.004-1.149-0.523-1.15-1.156L8.971,23.884z M4,50h42c2.2,0,4-1.8,4-4
		V4c0-2.2-1.8-4-4-4H4C1.801,0,0,1.8,0,4v42C0,48.2,1.801,50,4,50"/>
</g>
</svg>
