<?xml version="1.0" standalone="no"?>
<!DOCTYPE svg PUBLIC "-//W3C//DTD SVG 1.1//EN" "http://www.w3.org/Graphics/SVG/1.1/DTD/svg11.dtd" >
<svg xmlns="http://www.w3.org/2000/svg" xmlns:xlink="http://www.w3.org/1999/xlink" version="1.1">
<metadata></metadata>
<defs>
<font id="conduititc_ttbold" horiz-adv-x="1038" >
<font-face units-per-em="2048" ascent="1638" descent="-410" />
<missing-glyph horiz-adv-x="362" />
<glyph horiz-adv-x="0" />
<glyph unicode="&#xd;" horiz-adv-x="362" />
<glyph unicode=" "  horiz-adv-x="362" />
<glyph unicode="&#x09;" horiz-adv-x="362" />
<glyph unicode="&#xa0;" horiz-adv-x="362" />
<glyph unicode="!" horiz-adv-x="569" d="M176 117q0 57 41 97t96 40t96.5 -41t41.5 -96t-41 -96t-97 -41q-57 0 -97 40.5t-40 96.5zM197 735v535q0 20 20 20h193q20 0 20 -20v-535l-43 -364q-2 -18 -20 -19h-103q-18 0 -20 19z" />
<glyph unicode="&#x22;" horiz-adv-x="647" d="M68 1272q0 18 20 18h197q20 0 20 -18v-4l-47 -369q-2 -18 -20 -18h-101q-18 0 -20 18zM342 1272q0 18 20 18h197q20 0 21 -18v-4l-48 -369q-2 -18 -20 -18h-102q-18 0 -21 18z" />
<glyph unicode="#" horiz-adv-x="1138" d="M55 365q2 10 2 8l47 174q2 20 25 20h131q16 0 21 17l32 114q0 2 2 4v3q0 18 -22 18h-131q-16 0 -17 12q2 10 2 8l48 175q2 20 24 20h150q16 0 20 16l90 322q4 14 21 14h123q23 0 22 -18v-4q-2 -2 -2 -4l-84 -299v-4q-2 -2 -2 -5q0 -18 23 -18h157q14 0 21 16l94 322 q2 14 20 14h123q23 0 23 -18v-4q-2 -2 -2 -4l-84 -299q0 4 -2 -9q0 -18 22 -18h117q16 0 16 -16v-4l-47 -175q-6 -20 -26 -20h-133q-16 0 -21 -12l-33 -117v-4q-2 -2 -2 -4q0 -18 23 -19h133q16 0 16 -16v-4l-47 -174q-6 -20 -26 -21h-148q-16 0 -20 -12l-95 -326 q-4 -14 -20 -14h-121q-23 0 -22 18q2 10 2 9l82 301q0 2 2 4v2q0 18 -23 18h-160q-16 0 -20 -12l-92 -326q-4 -14 -21 -14h-123q-23 0 -22 18q2 10 2 9l86 301q0 2 2 4v2q0 18 -23 18h-116q-16 0 -17 13zM453 586q0 -18 22 -19h158q16 0 20 17l33 114q0 2 2 4v3q0 18 -22 18 h-158q-16 0 -21 -12l-32 -117v-4q-2 -2 -2 -4z" />
<glyph unicode="$" d="M92 948q0 231 203 330q43 20 117 29q51 6 51 24v55q0 20 20 21h107q20 0 20 -21v-59q0 -18 31 -24q72 -14 96 -23q59 -20 111 -74q90 -96 90 -137q0 -10 -12 -16l-178 -88q-4 -2 -11 -2q-10 0 -30 36q-47 82 -82 82q-14 0 -15 -22v-289l11 -16q338 -150 337 -422 q0 -106 -55 -194.5t-139 -119.5q-35 -14 -113 -28q-41 -8 -41 -29v-57q0 -20 -20 -21h-107q-20 0 -20 21v55q0 20 -62 27q-86 8 -139 37q-66 35 -117 106q-45 63 -45 96q0 8 13 15l176 88q4 2 10 2q8 0 68 -97q23 -37 75 -36q20 0 21 20v322q-4 18 -41 34q-47 23 -94 43 q-236 115 -236 332zM326 956q0 -47 40 -89t83 -42q14 1 14 21v225q0 20 -21 21q-41 0 -78.5 -43t-37.5 -93zM610 227q0 -20 15 -20q35 0 67.5 41t32.5 94q0 47 -34 88t-66 41q-14 0 -15 -22v-222z" />
<glyph unicode="%" horiz-adv-x="1120" d="M94 899v191q0 90 56.5 145t148.5 55q94 0 150.5 -53t56.5 -141v-197q0 -88 -56.5 -141t-150.5 -53t-149.5 53t-55.5 141zM217 16q0 2 4 13l535 1249q2 6 18 12h109q23 0 22 -16q0 -2 -4 -12l-534 -1250q-6 -12 -19 -12h-108q-23 0 -23 16zM260 899q0 -39 39 -39 q41 0 41 39v197q0 39 -41 39q-39 0 -39 -39v-197zM616 195v196q0 88 55.5 141.5t149.5 53.5t149.5 -53.5t55.5 -141.5v-196q0 -88 -55.5 -141.5t-149.5 -53.5t-149.5 53t-55.5 142zM782 195q0 -39 39 -39t39 39v196q0 39 -39 39t-39 -39v-196z" />
<glyph unicode="&#x26;" horiz-adv-x="1253" d="M109 358v50q0 82 41 137q80 109 79 110q0 6 -88 123q-33 43 -32 146q0 180 102 283.5t278 103.5q174 0 277.5 -103.5t103.5 -279.5v-39q0 -98 -69 -195q-18 -25 -54 -42t-36 -27q0 -12 31.5 -43t41.5 -31q6 0 31 33q37 51 68 86q82 92 256 92h63q20 0 21 -21v-192 q0 -20 -21 -21h-80q-61 0 -103 -42t-42 -105v-27l6 -14q47 -55 113 -86q12 -4 108 -37q18 -6 19 -20v-197q0 -20 -47 -20q-109 0 -226 71q-94 57 -92 58q-2 0 -113 -84q-59 -45 -196 -45h-60q-176 0 -278 101t-102 277zM342 342q0 -61 43 -104t104 -43h60q80 -1 137 81 q4 4 4 7q0 27 -63 90q-76 76 -197 151h-20q-68 -51 -68 -123v-59zM342 948q0 -98 143 -186l15 -4q137 40 137 151v39q0 59 -43 103.5t-105 44.5q-61 0 -104 -43t-43 -105z" />
<glyph unicode="'" horiz-adv-x="372" d="M68 1272q0 18 20 18h197q20 0 20 -18v-4l-47 -369q-2 -18 -20 -18h-101q-18 0 -20 18z" />
<glyph unicode="(" horiz-adv-x="745" d="M168 29v1075q0 168 98 266q115 115 266 115q45 0 46 -21v-176q0 -16 -21 -22q-31 -6 -65.5 -13.5t-62.5 -44.5t-28 -84v-1114q0 -47 28 -85t65 -46q31 -6 63 -12q20 -6 21 -23v-176q0 -20 -46 -20q-66 0 -141.5 32.5t-124.5 81.5q-98 100 -98 267z" />
<glyph unicode=")" horiz-adv-x="745" d="M168 -156q0 16 18 21l58 12q41 10 69.5 47t28.5 86v1114q0 49 -27.5 85t-70.5 46q-29 6 -58 13q-18 4 -18 20v176q0 20 41 21q154 0 261.5 -105.5t107.5 -275.5v-1075q0 -166 -99 -267q-113 -115 -270 -114q-41 0 -41 20v176z" />
<glyph unicode="*" horiz-adv-x="798" d="M41 948q0 10 14 17l158 63q14 6 14 19q0 12 -14 18l-156 68q-14 6 -14 16q0 6 4 12l82 142q6 12 16 12q6 0 15 -6l129 -107q6 -6 16 -6q16 0 17 21v6l-23 168q0 18 20 18h162q20 0 21 -18v-5l-23 -169q0 -23 17 -23q8 0 16 6l137 109q8 6 15 6q10 0 16 -12l80 -140 q4 -6 4 -12q0 -10 -14 -16l-162 -70q-16 -6 -17 -18q0 -12 17 -19l164 -63q14 -6 14 -17q0 -6 -4 -12l-82 -139q-8 -12 -16 -13q-6 0 -15 7l-139 100q-12 8 -18 8q-14 0 -15 -18v-7l25 -178q0 -18 -21 -18h-162q-20 0 -20 18v4l23 179q0 18 -15 18q-8 0 -18 -8l-131 -103 q-8 -6 -15 -6q-10 0 -16 13l-82 143q-4 6 -4 12z" />
<glyph unicode="+" d="M80 430v135q0 20 20 21h310q20 0 20 20v312q0 20 21 20h135q20 0 20 -20v-312q0 -20 21 -20h311q20 0 20 -21v-135q0 -20 -20 -20h-311q-20 0 -21 -21v-309q0 -20 -20 -21h-135q-20 0 -21 21v309q0 20 -20 21h-310q-20 0 -20 20z" />
<glyph unicode="," horiz-adv-x="471" d="M70 -131l46 44t46 95q0 23 -21 23h-22q-20 0 -21 20v199q0 20 21 20h233q20 0 21 -20v-150q0 -141 -62 -233q-37 -53 -96 -96q-49 -33 -70 -33q-10 0 -16 10l-55 109q-4 8 -4 12z" />
<glyph unicode="-" horiz-adv-x="569" d="M80 373v192q0 20 20 21h369q20 0 20 -21v-192q0 -20 -20 -21h-369q-20 0 -20 21z" />
<glyph unicode="." horiz-adv-x="471" d="M98 117q0 57 40 97t98 40q55 0 96 -41t41 -96t-41 -96t-96 -41q-57 0 -97.5 40.5t-40.5 96.5z" />
<glyph unicode="/" horiz-adv-x="675" d="M-16 16q0 2 4 13l534 1249q2 6 19 12h129q23 0 22 -16q0 -2 -4 -12l-534 -1250q-4 -10 -19 -12h-129q-23 0 -22 16z" />
<glyph unicode="0" d="M109 342v606q0 164 104 263.5t276 99.5h60q172 0 276.5 -99.5t104.5 -263.5v-606q0 -162 -104.5 -262t-276.5 -100h-60q-172 0 -276 99t-104 263zM342 342q0 -61 43 -104t104 -43h60q61 0 103 42t42 105v606q0 63 -42 105.5t-103 42.5h-60q-61 0 -104 -43t-43 -105v-606z " />
<glyph unicode="1" d="M176 926q0 6 8 14l342 344l15 6h110q20 0 21 -20v-1034q0 -20 20 -21h193q20 0 20 -20v-175q0 -20 -20 -20h-662q-20 0 -20 20v175q0 20 20 20h193q20 0 20 21v600q0 23 -18 22q-8 0 -17 -8l-61 -64q-8 -8 -14 -8t-15 8l-127 125q-8 8 -8 15z" />
<glyph unicode="2" d="M98 1069q0 49 94.5 145.5t268.5 96.5h74q172 0 276 -99.5t104 -263.5q0 -145 -86 -248q-66 -78 -241 -188q-119 -74 -158 -115q-57 -61 -57 -141v-20q0 -20 20 -21h488q20 0 20 -20v-175q0 -20 -20 -20h-723q-20 0 -21 20v236q0 156 90 270q80 102 267 211q102 59 139 99 q49 49 49 112q0 61 -44 104.5t-103 43.5h-74q-72 0 -115 -66q-6 -10 -29 -49q-10 -20 -18 -20l-12 4l-176 90q-12 6 -13 14z" />
<glyph unicode="3" d="M98 1069q0 49 94.5 145.5t268.5 96.5h57q176 0 279.5 -103.5t103.5 -279.5v-29q0 -78 -49 -143q-70 -94 -70 -92q0 6 66 -89q53 -76 53 -157v-60q0 -174 -103.5 -276t-279.5 -102h-57q-174 0 -267.5 95t-93.5 150q0 8 13 15l178 88q4 2 10 2q10 0 41 -62q37 -74 119 -73 h57q59 0 103.5 43t44.5 104v70q0 61 -42 103t-106 42h-184q-20 0 -21 21v174q0 20 21 20h184q59 0 103.5 43t44.5 105v28q0 61 -44 104.5t-104 43.5h-57q-72 0 -115 -66q-6 -10 -29 -49q-10 -20 -18 -20l-12 4l-176 90q-12 6 -13 14z" />
<glyph unicode="4" d="M53 303v174l551 813h189q20 0 20 -20v-752q0 -20 21 -20h133q20 0 20 -21v-174q0 -20 -20 -20h-133q-20 0 -21 -21v-242q0 -20 -20 -20h-195q-20 0 -20 20v242q0 20 -21 21h-483q-20 0 -21 20zM324 514q0 -16 22 -16h211q21 0 21 20v318q0 25 -19 24q-10 0 -18 -12 l-211 -318q-6 -10 -6 -16z" />
<glyph unicode="5" d="M133 225q0 8 12 15l177 88q4 2 10 2q10 0 16 -15q47 -121 144 -120h59q61 0 103 42t42 105v70q0 61 -42 103t-103 42h-342q-20 0 -21 21v692q0 20 21 20h682q20 0 20 -20v-174q0 -20 -20 -21h-447q-20 0 -20 -20v-262q0 -20 20 -21h107q176 0 278.5 -101.5t102.5 -275.5 v-37q0 -176 -102.5 -277t-278.5 -101h-59q-176 0 -267.5 95t-91.5 150z" />
<glyph unicode="6" d="M109 342v606q0 164 104 263.5t276 99.5h62q139 0 233 -68q53 -39 97 -100q35 -51 34 -74q0 -10 -12 -16l-178 -86q-4 -2 -10 -2q-10 0 -27 30q-55 100 -137 101h-62q-61 0 -103 -42t-42 -106v-186q0 -23 14 -23q8 0 58.5 21.5t93.5 21.5h61q158 0 260.5 -102t102.5 -260 v-78q0 -164 -104.5 -263t-278.5 -99h-62q-172 0 -276 99t-104 263zM344 342q0 -63 42 -105t103 -42h62q61 0 104 43t43 104v78q0 59 -43 103t-104 44h-62q-61 0 -103 -42t-42 -105v-78z" />
<glyph unicode="7" d="M158 1096v174q0 20 20 20h721q20 0 21 -20v-236q0 -158 -80 -268q-61 -86 -226 -199q-102 -70 -135 -106q-49 -53 -49 -119v-322q0 -20 -20 -20h-193q-20 0 -20 20v322q0 135 67 233q57 82 197 181q129 90 162 125q63 66 63 153v21q0 20 -20 20h-488q-20 0 -20 21z" />
<glyph unicode="8" d="M109 358v50q0 82 51 155q66 94 65 90l-69 95q-47 63 -47 141v39q0 176 102 279.5t278 103.5h60q174 0 277.5 -104.5t103.5 -278.5v-39q0 -78 -47 -141q-70 -94 -70 -95q0 4 66 -90q51 -74 51 -155v-50q0 -174 -103.5 -276t-277.5 -102h-60q-176 0 -278 101t-102 277z M342 342q0 -61 43 -104t104 -43h60q61 0 103 42t42 105v59q0 61 -42 103.5t-103 42.5h-60q-63 0 -105 -42t-42 -104v-59zM342 909q0 -61 43 -104t104 -43h60q61 0 103 42t42 105v39q0 63 -42 105.5t-103 42.5h-60q-61 0 -104 -43t-43 -105v-39z" />
<glyph unicode="9" d="M109 801v147q0 164 104 263.5t276 99.5h62q174 0 278.5 -99.5t104.5 -263.5v-606q0 -164 -104.5 -263t-278.5 -99h-62q-172 0 -265 95t-93 150q0 8 12 15l176 88q4 2 11 2q8 0 42 -67.5t117 -67.5h62q61 0 104 43t43 104v117q0 23 -14 22q-6 0 -56 -20.5t-96 -20.5h-61 q-158 0 -260 101.5t-102 259.5zM344 801q0 -63 41 -104.5t104 -41.5h62q63 0 105 42.5t42 103.5v147q0 61 -43 104.5t-104 43.5h-62q-61 0 -103 -42t-42 -106v-147z" />
<glyph unicode=":" horiz-adv-x="471" d="M98 117q0 57 40 97t98 40q55 0 96 -41t41 -96t-41 -96t-96 -41q-57 0 -97.5 40.5t-40.5 96.5zM98 645q0 55 40 96t98 41q55 0 96 -41t41 -96q0 -57 -41 -97t-96 -40q-57 0 -97.5 40t-40.5 97z" />
<glyph unicode=";" horiz-adv-x="471" d="M70 -131l46 44t46 95q0 23 -21 23h-22q-20 0 -21 20v199q0 20 21 20h233q20 0 21 -20v-150q0 -141 -62 -233q-37 -53 -96 -96q-49 -33 -70 -33q-10 0 -16 10l-55 109q-4 8 -4 12zM98 645q0 55 40 96t98 41q55 0 96 -41t41 -96q0 -57 -41 -97t-96 -40q-57 0 -97.5 40 t-40.5 97z" />
<glyph unicode="&#x3c;" d="M121 430v141l10 19l645 377q6 4 10 4q10 0 19 -13l69 -114q4 -6 5 -13q0 -10 -13 -16l-508 -295q-14 -8 -14 -18t14 -19l506 -290q12 -6 13 -17q0 -4 -5 -12l-67 -121q-6 -12 -17 -12q-6 0 -12 4l-645 377z" />
<glyph unicode="=" d="M80 256v133q0 20 20 21h838q20 0 20 -21v-133q0 -20 -20 -20h-838q-20 0 -20 20zM80 606v135q0 20 20 21h838q20 0 20 -21v-135q0 -20 -20 -20h-838q-20 0 -20 20z" />
<glyph unicode="&#x3e;" d="M164 176q0 10 12 17l504 290q14 10 14 19q0 8 -14 18l-504 295q-12 8 -12 16q0 6 4 13l70 114q8 12 16 13q6 0 12 -4l641 -377l11 -19v-141l-11 -18l-641 -377q-6 -4 -12 -4q-10 0 -16 12l-70 121q-4 6 -4 12z" />
<glyph unicode="?" d="M104 1069q0 49 94.5 145.5t268.5 96.5h74q172 0 276.5 -100.5t104.5 -262.5q0 -225 -185 -315q-123 -59 -139 -74q-53 -37 -53 -96q0 -20 6 -50t6 -40q0 -20 -20 -21h-195q-33 0 -33 140q0 174 185 270q119 61 139 78q53 41 53 108q0 63 -42 105.5t-103 42.5h-74 q-72 0 -115 -66q-6 -10 -28 -49q-10 -20 -19 -20l-12 4l-176 90q-12 6 -13 14zM324 117q0 57 41 97t96 40t96 -40t41 -97q0 -55 -40 -96t-97 -41t-97 40.5t-40 96.5z" />
<glyph unicode="@" horiz-adv-x="1447" d="M168 367v557q0 166 105.5 266t279.5 100h344q174 0 279.5 -101.5t105.5 -264.5v-414q0 -90 -58.5 -145.5t-154.5 -55.5h-25q-80 0 -151 53l-12 3q-86 -55 -170 -56q-117 0 -191 73t-74 189v158q0 115 75 187.5t186 72.5q43 0 116 -22h15q2 23 26 22h105q31 0 30 -28v-441 q0 -49 48 -49h22q47 0 47 49v404q0 92 -59.5 146t-159.5 54h-344q-100 0 -160.5 -55t-60.5 -145v-557q0 -92 59.5 -146.5t161.5 -54.5h526q31 0 31 -31v-104q0 -31 -31 -31h-526q-174 0 -279.5 100.5t-105.5 266.5zM612 584q0 -47 32 -80t79 -33t81 34t34 79v129 q0 45 -34 78.5t-81 33.5t-79 -32.5t-32 -79.5v-129z" />
<glyph unicode="A" horiz-adv-x="921" d="M-16 18q2 10 2 9l381 1249q4 14 20 14h148q16 0 20 -14l381 -1249q0 4 2 -9q0 -18 -23 -18h-206q-16 0 -21 14l-61 215q-4 12 -21 13h-293q-16 0 -20 -13l-62 -215q-4 -14 -20 -14h-205q-23 0 -22 18zM362 475q0 -18 23 -18h150q23 0 22 18v4q-2 2 -2 4l-68 271 q-4 12 -22 112h-6q-8 -37 -25 -112l-69 -271v-4q-2 -2 -3 -4z" />
<glyph unicode="B" horiz-adv-x="1097" d="M137 20v1250q0 20 21 20h460q176 0 278.5 -102.5t102.5 -278.5v-20q0 -78 -45 -139q-72 -96 -71 -97q0 6 67 -92q49 -72 49 -153v-31q0 -174 -102 -275.5t-279 -101.5h-460q-20 0 -21 20zM373 236q0 -20 20 -21h225q61 0 104.5 43t43.5 104v39q0 61 -42 103.5t-106 42.5 h-225q-20 0 -20 -21v-290zM373 782q0 -20 20 -20h225q59 0 103.5 43t44.5 104v19q0 59 -44 103t-104 44h-225q-20 0 -20 -20v-273z" />
<glyph unicode="C" horiz-adv-x="991" d="M109 342v606q0 164 104 263.5t276 99.5h101q139 0 231 -68q55 -41 97 -100q34 -50 34 -73q0 -11 -12 -17l-178 -88q-4 -2 -10 -2q-10 0 -29 34q-53 98 -133 99h-101q-61 0 -104 -43t-43 -105v-606q0 -61 43 -104t104 -43h101q80 0 131 98q20 39 31 39q6 0 10 -2l178 -88 q12 -6 12 -17q0 -49 -98 -151q-92 -94 -264 -94h-101q-172 0 -276 99t-104 263z" />
<glyph unicode="D" horiz-adv-x="1107" d="M137 20v1250q0 20 21 20h460q176 0 278.5 -102.5t102.5 -278.5v-528q0 -174 -102 -277.5t-279 -103.5h-460q-20 0 -21 20zM373 236q0 -20 20 -21h225q61 0 104.5 43t43.5 104v566q0 59 -44 103t-104 44h-225q-20 0 -20 -20v-819z" />
<glyph unicode="E" horiz-adv-x="978" d="M137 20v1250q0 20 21 20h723q20 0 20 -20v-174q0 -20 -20 -21h-488q-20 0 -20 -20v-273q0 -20 20 -20h400q20 0 20 -21v-174q0 -20 -20 -20h-400q-20 0 -20 -21v-290q0 -20 20 -21h488q20 0 20 -20v-175q0 -20 -20 -20h-723q-20 0 -21 20z" />
<glyph unicode="F" horiz-adv-x="929" d="M137 20v1250q0 20 21 20h723q20 0 20 -20v-174q0 -20 -20 -21h-488q-20 0 -20 -20v-273q0 -20 20 -20h400q20 0 20 -21v-174q0 -20 -20 -20h-400q-20 0 -20 -21v-506q0 -20 -21 -20h-194q-20 0 -21 20z" />
<glyph unicode="G" horiz-adv-x="1079" d="M109 342v606q0 164 104 263.5t276 99.5h136q139 0 233 -68q53 -39 94 -98q35 -53 35 -76q0 -10 -12 -16l-178 -88q-4 -2 -11 -2q-10 0 -28 34q-53 98 -133 99h-136q-61 0 -104 -43t-43 -105v-606q0 -61 43 -104t104 -43h101q61 0 103 42t42 105v96q0 20 -20 21h-193 q-20 0 -20 20v174q0 20 20 21h428q20 0 21 -21v-311q0 -164 -104.5 -263t-276.5 -99h-101q-172 0 -276 99t-104 263z" />
<glyph unicode="H" horiz-adv-x="1167" d="M137 20v1250q0 20 21 20h194q20 0 21 -20v-488q0 -20 20 -20h381q20 0 21 20v488q0 20 20 20h193q20 0 20 -20v-1250q0 -20 -20 -20h-193q-20 0 -20 20v506q0 20 -21 21h-381q-20 0 -20 -21v-506q0 -20 -21 -20h-194q-20 0 -21 20z" />
<glyph unicode="I" horiz-adv-x="509" d="M137 20v1250q0 20 21 20h194q20 0 21 -20v-1250q0 -20 -21 -20h-194q-20 0 -21 20z" />
<glyph unicode="J" horiz-adv-x="862" d="M6 223q0 12 12 19l183 86q4 2 10 4q10 0 29 -39q49 -98 133 -98q61 0 103 43t42 104v928q0 20 21 20h194q20 0 21 -20v-908q0 -152 -113 -272q-101 -110 -265 -110h-3q-68 0 -172 36q-88 49 -144 113q-51 57 -51 94z" />
<glyph unicode="K" horiz-adv-x="1067" d="M137 20v1250q0 20 21 20h194q20 0 21 -20v-455q0 -25 18 -24q8 0 19 12l364 479l17 8h235q23 0 23 -16q0 -6 -7 -17l-397 -491q-4 -8 -4 -10q0 -4 4 -13l440 -712q4 -8 5 -15q0 -16 -23 -16h-240l-16 10l-322 514q-8 12 -16 13q-12 0 -18 -9l-82 -108v-400q0 -20 -21 -20 h-194q-20 0 -21 20z" />
<glyph unicode="L" horiz-adv-x="929" d="M137 20v1250q0 20 21 20h194q20 0 21 -20v-1034q0 -20 20 -21h488q20 0 20 -20v-175q0 -20 -20 -20h-723q-20 0 -21 20z" />
<glyph unicode="M" horiz-adv-x="1304" d="M137 20v1250q0 20 21 20h176q10 -2 18 -12l299 -811l299 811q10 10 19 12h176q20 0 20 -20v-1250q0 -20 -20 -20h-189q-20 0 -20 20l18 799l-231 -631q-12 -12 -18 -12h-105q-12 0 -18 12l-232 631l19 -799q0 -20 -21 -20h-190q-20 0 -21 20z" />
<glyph unicode="N" horiz-adv-x="1126" d="M137 20v1250q0 20 21 20h172l18 -10l418 -831l-4 821q0 20 16 20h189q20 0 20 -20v-1250q0 -20 -20 -20h-170l-19 10l-420 824l4 -814q0 -20 -14 -20h-190q-20 0 -21 20z" />
<glyph unicode="O" horiz-adv-x="1079" d="M109 342v606q0 164 104 263.5t276 99.5h101q172 0 276.5 -99.5t104.5 -263.5v-606q0 -164 -104.5 -263t-276.5 -99h-101q-172 0 -276 99t-104 263zM342 342q0 -61 43 -104t104 -43h101q61 0 103 42t42 105v606q0 63 -42 105.5t-103 42.5h-101q-61 0 -104 -43t-43 -105 v-606z" />
<glyph unicode="P" horiz-adv-x="989" d="M137 20v1250q0 20 21 20h420q174 0 277 -103.5t103 -277.5q0 -160 -105 -261t-275 -101h-185q-20 0 -20 -21v-506q0 -20 -21 -20h-194q-20 0 -21 20zM373 782q0 -20 20 -20h185q61 0 104 43t43 104v19q0 59 -43 103t-104 44h-185q-20 0 -20 -20v-273z" />
<glyph unicode="Q" horiz-adv-x="1079" d="M109 342v606q0 164 104 263.5t276 99.5h101q172 0 276.5 -99.5t104.5 -263.5v-606q0 -109 -50.5 -195t-129.5 -120q-29 -12 -103 -31q-41 -10 -41 -31v-121q0 -20 -20 -20h-174q-20 0 -21 20v121q0 16 -45 27q-68 14 -102 35q-176 98 -176 315zM342 342q0 -47 27.5 -86 t54.5 -39q10 0 16 16l27 82q4 14 20 15h105q18 0 20 -15l27 -86q4 -16 16 -16q23 0 51.5 40t28.5 89v606q0 63 -42 105.5t-103 42.5h-101q-61 0 -104 -43t-43 -105v-606z" />
<glyph unicode="R" horiz-adv-x="1079" d="M137 20v1250q0 20 21 20h460q176 0 278.5 -102.5t102.5 -278.5v-20q0 -127 -90 -219q-14 -14 -55 -45q-29 -23 -29 -33v-2l195 -563q2 -4 2 -11q0 -16 -21 -16h-210q-10 0 -19 14l-180 521l-17 12h-182q-20 0 -20 -21v-506q0 -20 -21 -20h-194q-20 0 -21 20zM373 782 q0 -20 20 -20h225q59 0 103.5 43t44.5 104v19q0 59 -44 103t-104 44h-225q-20 0 -20 -20v-273z" />
<glyph unicode="S" horiz-adv-x="901" d="M39 225q0 8 12 15l178 88q4 2 11 2q8 0 39 -62q37 -73 118 -73h2h82q59 0 103.5 43t44.5 104q0 70 -60 117q-35 27 -159 86q-182 88 -254 166q-86 94 -86 237q0 164 104.5 263.5t276.5 99.5h30q139 0 234 -68q53 -39 96 -100q35 -51 35 -74q0 -10 -12 -16l-179 -88 q-4 -2 -10 -2q-8 0 -27 30q-61 102 -137 103h-30q-61 0 -104.5 -43t-43.5 -105q0 -63 66 -106q23 -16 172 -84q170 -78 243 -170q78 -98 78 -246q0 -164 -104.5 -263t-276.5 -99h-82q-172 0 -266 96t-94 149z" />
<glyph unicode="T" horiz-adv-x="823" d="M31 1096v174q0 20 20 20h721q20 0 21 -20v-174q0 -20 -21 -21h-223q-20 0 -21 -20v-1035q0 -20 -20 -20h-193q-20 0 -20 20v1035q0 20 -21 20h-223q-20 0 -20 21z" />
<glyph unicode="U" horiz-adv-x="1079" d="M109 342v928q0 20 20 20h193q20 0 20 -20v-928q0 -61 43 -104t104 -43h101q61 0 103 42t42 105v928q0 20 21 20h194q20 0 21 -20v-928q0 -164 -104.5 -263t-276.5 -99h-101q-172 0 -276 99t-104 263z" />
<glyph unicode="V" horiz-adv-x="921" d="M-16 1268v4q0 18 22 18h205q16 0 20 -14l234 -832l223 832q4 14 21 14h206q23 0 23 -18v-4q-2 -2 -2 -4l-381 -1250q-2 -14 -20 -14h-148q-16 0 -20 14l-381 1250q0 2 -2 4z" />
<glyph unicode="W" horiz-adv-x="1345" d="M4 1274q0 16 23 16h209q18 0 20 -16l150 -834l194 840q4 14 21 14h102q16 0 20 -14l195 -840l152 834q2 16 20 16h209q23 0 22 -16v-4q-2 -2 -2 -4l-270 -1250q-4 -16 -20 -16h-150q-16 0 -20 14l-207 811l-205 -811q-4 -14 -21 -14h-149q-16 0 -21 16l-270 1250v4 q-2 2 -2 4z" />
<glyph unicode="X" horiz-adv-x="937" d="M2 16q0 2 4 15l307 606v18l-307 605q-4 12 -4 14q0 16 23 16h227q6 0 18 -12l183 -377q6 -14 18 -14t18 14l177 377q2 6 18 12h231q23 0 23 -16q0 -4 -4 -12l-305 -609v-16l305 -608q4 -8 4 -13q0 -16 -23 -16h-233q-12 0 -18 12l-175 371q-6 14 -18 14t-18 -14 l-181 -371l-18 -12h-229q-23 0 -23 16z" />
<glyph unicode="Y" horiz-adv-x="921" d="M-20 1274q0 16 22 16h227l19 -12l194 -401q6 -14 19 -15q12 0 18 15l195 401l18 12h226q23 0 22 -16q0 -2 -4 -14l-358 -672v-568q0 -20 -21 -20h-195q-20 0 -20 20v568l-358 672q-4 12 -4 14z" />
<glyph unicode="Z" horiz-adv-x="901" d="M20 16q0 4 5 13l456 1018q4 8 4 12q0 16 -22 16h-373q-20 0 -20 21v174q0 20 20 20h727q23 0 23 -16q0 -4 -4 -12l-459 -1018q-4 -8 -4 -13q0 -16 22 -16h416q20 0 20 -20v-175q0 -20 -20 -20h-768q-23 0 -23 16z" />
<glyph unicode="[" horiz-adv-x="745" d="M168 -332v1796q0 20 20 21h369q20 0 21 -21v-174q0 -20 -21 -20h-135q-20 0 -21 -21v-1366q0 -20 21 -20h135q20 0 21 -21v-174q0 -20 -21 -20h-369q-20 0 -20 20z" />
<glyph unicode="\" horiz-adv-x="675" d="M-16 1274q0 16 22 16h129q16 -6 19 -12l534 -1249q4 -10 4 -13q0 -16 -22 -16h-129q-14 2 -19 12l-534 1250q-4 10 -4 12z" />
<glyph unicode="]" horiz-adv-x="745" d="M168 -158q0 20 20 21h134q20 0 20 20v1366q0 20 -20 21h-134q-20 0 -20 20v174q0 20 20 21h369q20 0 21 -21v-1796q0 -20 -21 -20h-369q-20 0 -20 20v174z" />
<glyph unicode="^" horiz-adv-x="1550" d="M59 655v174q0 20 21 21h47q20 0 20 20v58q0 162 114 272.5t288 110.5q96 0 184 -43t82 -43l82 43t160 43q37 0 37 -21v-176q0 -16 -21 -22q-31 -6 -65.5 -13.5t-62 -45.5t-27.5 -85v-78q0 -20 20 -20h135q20 0 21 -21v-174q0 -20 -21 -20h-135q-20 0 -20 -21v-594 q0 -20 -21 -20h-195q-20 0 -20 20v594q0 20 -20 21h-259q-20 0 -20 -21v-594q0 -20 -21 -20h-194q-20 0 -21 20v594q0 20 -20 21h-47q-20 0 -21 20zM383 870q0 -20 20 -20h259q20 0 20 20v58q0 45 10 86l-6 18q-68 63 -158 64q-61 0 -103 -42t-42 -106v-78zM1192 1174 q0 57 40 97t97 40q55 0 95 -40t40 -97t-40 -97.5t-95 -40.5q-57 0 -97 40t-40 98zM1210 20v898q0 20 21 20h194q20 0 21 -20v-898q0 -20 -21 -20h-194q-20 0 -21 20z" />
<glyph unicode="_" horiz-adv-x="471" d="M-18 -313q0 20 20 20h467q20 0 20 -20v-107q0 -20 -20 -20h-467q-20 0 -20 20v107z" />
<glyph unicode="`" horiz-adv-x="1024" d="M145 1378q0 16 23 17h258l16 -11l197 -301q4 -4 4 -14q0 -16 -20 -16h-150l-14 6l-305 301q-8 8 -9 18z" />
<glyph unicode="a" horiz-adv-x="968" d="M111 721q0 55 98 149q90 88 260 88q174 0 278.5 -98t104.5 -262v-578q0 -20 -21 -20h-174q-16 0 -21 19.5t-13 19.5q-4 0 -52.5 -19.5t-91.5 -19.5h-78q-127 0 -207.5 78t-80.5 196v11q0 121 80.5 197.5t207.5 76.5h197q20 0 20 19v4l-2 24q-12 137 -147 137 q-63 0 -113 -61q-8 -10 -30 -47q-12 -20 -23 -21q-4 0 -12 4l-168 89q-12 6 -12 14zM346 274q0 -59 55 -59h78q96 0 137 115q0 5 2 32h-217q-55 0 -55 -57v-31z" />
<glyph unicode="b" horiz-adv-x="968" d="M119 20v1250q0 20 20 20h193q20 0 20 -20v-350q0 -23 15 -23q4 0 58 20.5t105 20.5q147 0 249 -103.5t102 -256.5v-216q0 -160 -104.5 -261t-264.5 -101q-55 0 -107.5 20.5t-56.5 20.5q-8 0 -13 -20.5t-22 -20.5h-174q-20 0 -20 20zM352 362q0 -61 42 -104t106 -43 q63 0 104 42t41 105v216q0 61 -41 103t-104 42t-105.5 -42t-42.5 -103v-216z" />
<glyph unicode="c" horiz-adv-x="878" d="M88 342v254q0 164 104.5 263t278.5 99q143 0 234 -67q53 -41 94 -100q35 -51 35 -74q0 -10 -13 -17l-178 -88q-4 -2 -10 -2q-10 0 -29 35q-53 98 -133 98q-63 0 -105 -43t-42 -104v-254q0 -61 42 -104t105 -43q80 0 131 98q20 39 31 39q6 0 10 -2l178 -88q12 -6 13 -17 q0 -47 -101 -151q-90 -94 -262 -94q-174 0 -278.5 99t-104.5 263z" />
<glyph unicode="d" horiz-adv-x="968" d="M88 362v216q0 154 101.5 257t248.5 103q53 0 107.5 -20.5t56.5 -20.5q14 0 14 23v350q0 20 21 20h194q20 0 21 -20v-1250q0 -20 -21 -20h-174q-16 0 -21 20.5t-13 20.5q-4 0 -57.5 -20.5t-108.5 -20.5q-160 0 -264.5 101.5t-104.5 260.5zM324 362q0 -63 42 -105t105 -42 t104 42t41 105v216q0 61 -40.5 103t-104.5 42q-63 0 -105 -42t-42 -103v-216z" />
<glyph unicode="e" horiz-adv-x="940" d="M88 342v254q0 102 57 188q117 174 326 174t324 -174q57 -88 57 -188v-166q0 -20 -21 -20h-487q-20 0 -20 -21v-47q0 -61 42 -104t105 -43q80 0 131 98q20 39 31 39q6 0 10 -2l178 -88q12 -6 13 -17q0 -47 -101 -151q-90 -94 -262 -94q-174 0 -278.5 99t-104.5 263z M328 625q0 -18 20 -19h244q20 0 20 21q0 43 -44 79.5t-97 36.5q-57 0 -100 -36.5t-43 -81.5z" />
<glyph unicode="f" horiz-adv-x="598" d="M59 655v174q0 20 21 21h47q20 0 20 20v58q0 150 113 270q104 113 268 113q147 0 148 -33v-4q-2 -2 -2 -4l-62 -172q-4 -14 -22 -15q-6 0 -26.5 6.5t-35.5 6.5q-61 0 -103 -43t-42 -105v-78q0 -20 20 -20h134q20 0 20 -21v-174q0 -20 -20 -20h-134q-20 0 -20 -21v-594 q0 -20 -21 -20h-194q-20 0 -21 20v594q0 20 -20 21h-47q-20 0 -21 20z" />
<glyph unicode="g" horiz-adv-x="940" d="M88 -147q0 80 76 167q35 41 35 46l-11 32q-10 33 -10 66q0 35 14.5 73.5t14.5 41.5q0 8 -6 14q-66 90 -74 106q-39 72 -39 160v19q0 154 106.5 257t262.5 103q53 0 108.5 -20.5t59.5 -20.5q6 0 11 20.5t21 20.5h174q20 0 21 -20v-359q0 -164 -110.5 -263t-297.5 -99h-30 q-14 -14 -15 -33q0 -16 17 -37h229q131 0 213 -78t82 -196v-39q0 -119 -83 -197t-212 -78h-262q-131 0 -213 78t-82 197v39zM324 -147v-39q0 -59 59 -60h262q60 1 60 60v39q0 59 -60 59h-262q-59 0 -59 -59zM324 559q0 -61 42 -104t105 -43q61 0 103 43t42 104v19 q0 61 -40.5 103t-104.5 42q-63 0 -105 -42t-42 -103v-19z" />
<glyph unicode="h" horiz-adv-x="989" d="M119 20v1250q0 20 20 20h193q20 0 20 -20v-350q0 -23 15 -23q4 0 58 20.5t105 20.5q145 0 248 -102.5t103 -257.5v-558q0 -20 -21 -20h-194q-20 0 -21 20v558q0 61 -41 103t-104 42t-105.5 -42t-42.5 -103v-558q0 -20 -20 -20h-193q-20 0 -20 20z" />
<glyph unicode="i" horiz-adv-x="471" d="M98 1174q0 57 40 97t98 40q55 0 96 -41t41 -96t-41 -96.5t-96 -41.5q-57 0 -97.5 40t-40.5 98zM119 20v898q0 20 20 20h193q20 0 20 -20v-898q0 -20 -20 -20h-193q-20 0 -20 20z" />
<glyph unicode="j" horiz-adv-x="471" d="M-57 -287q0 16 18 21q29 6 57 12q100 25 101 133v1039q0 20 20 20h193q20 0 20 -20v-1020q0 -195 -151 -297q-123 -82 -236 -82q-23 0 -22 20v174zM98 1174q0 57 40 97t98 40q55 0 96 -41t41 -96t-41 -96.5t-96 -41.5q-57 0 -97.5 40t-40.5 98z" />
<glyph unicode="k" horiz-adv-x="919" d="M119 20v1250q0 20 20 20h193q20 0 20 -20v-561q0 -23 19 -23q8 0 16 8l217 238l14 6h244q23 0 23 -16q0 -10 -8 -19l-283 -289q-8 -12 -8 -14t4 -10l346 -559q4 -8 4 -15q0 -16 -22 -16h-240l-19 10l-235 387q-8 12 -16 13q-8 0 -17 -9l-33 -32l-6 -15v-334 q0 -20 -20 -20h-193q-20 0 -20 20z" />
<glyph unicode="l" horiz-adv-x="471" d="M119 20v1250q0 20 20 20h193q20 0 20 -20v-1250q0 -20 -20 -20h-193q-20 0 -20 20z" />
<glyph unicode="m" horiz-adv-x="1447" d="M119 20v898q0 20 20 20h174q16 0 21.5 -22.5t13.5 -22.5q6 0 60.5 22.5t105.5 22.5q74 0 197 -74q10 -6 14 -6q6 0 14 6q98 74 230 74q158 0 260 -101.5t102 -258.5v-558q0 -20 -20 -20h-195q-20 0 -20 20v558q0 59 -38 102t-89 43q-49 0 -88 -44t-39 -101v-558 q0 -20 -21 -20h-194q-20 0 -21 20v558q0 59 -38 102t-89 43q-47 0 -87 -44t-40 -101v-558q0 -20 -20 -20h-193q-20 0 -20 20z" />
<glyph unicode="n" horiz-adv-x="999" d="M119 20v898q0 20 20 20h174q16 0 22.5 -20.5t12.5 -20.5q4 0 58.5 20.5t109.5 20.5q158 0 261.5 -101.5t103.5 -258.5v-558q0 -20 -21 -20h-194q-20 0 -21 20v558q0 61 -41 103t-104 42t-105.5 -42t-42.5 -103v-558q0 -20 -20 -20h-193q-20 0 -20 20z" />
<glyph unicode="o" horiz-adv-x="940" d="M88 342v254q0 164 104.5 263t278.5 99q172 0 276.5 -99t104.5 -263v-254q0 -164 -104.5 -263t-276.5 -99q-174 0 -278.5 99t-104.5 263zM324 342q0 -61 42 -104t105 -43q61 0 103 43t42 104v254q0 61 -42 104t-103 43q-63 0 -105 -43t-42 -104v-254z" />
<glyph unicode="p" horiz-adv-x="968" d="M119 -440v1358q0 20 20 20h174q16 0 21.5 -20.5t13.5 -20.5q2 0 57.5 20.5t110.5 20.5q158 0 261.5 -100.5t103.5 -259.5v-216q0 -158 -102.5 -260t-260.5 -102q-43 0 -93 20.5t-58 20.5q-14 0 -15 -23v-458q0 -20 -20 -21h-193q-20 0 -20 21zM352 362q0 -61 42 -104 t106 -43q63 0 104 42t41 105v216q0 61 -41 103t-104 42t-105.5 -42t-42.5 -103v-216z" />
<glyph unicode="q" horiz-adv-x="968" d="M88 362v216q0 160 104.5 260t262.5 100q55 0 110.5 -20.5t59.5 -20.5q6 0 11 20.5t21 20.5h174q20 0 21 -20v-1358q0 -20 -21 -21h-194q-20 0 -21 21v458q0 23 -14 23q-6 0 -56 -20.5t-95 -20.5q-162 0 -256 100q-106 113 -107 262zM324 362q0 -63 42 -105t105 -42 t104 42t41 105v216q0 61 -40.5 103t-104.5 42q-63 0 -105 -42t-42 -103v-216z" />
<glyph unicode="r" horiz-adv-x="638" d="M119 20v898q0 20 20 20h174q20 0 21 -18v-29q0 -16 18 -21l13 7q80 61 155 61q115 0 115 -37v-199q0 -23 -14 -22q-10 0 -52.5 20.5t-74.5 20.5q-59 0 -100.5 -42t-41.5 -101v-558q0 -20 -20 -20h-193q-20 0 -20 20z" />
<glyph unicode="s" horiz-adv-x="940" d="M82 221q0 8 12 15l168 81q4 2 10 2t17 -14q39 -66 59 -84q35 -33 88 -33h60q118 0 118 87q0 52 -77 69q-102 20 -205 39q-240 61 -240 258q0 139 96.5 228t247.5 89h60q141 0 235 -69q51 -37 88 -96q33 -49 33 -72q0 -10 -12 -16l-168 -82q-4 -2 -10 -2q-8 0 -17 12 q-49 72 -59 82q-35 35 -90 35h-60q-112 0 -112 -77q0 -52 77 -71q100 -20 203 -41q244 -66 244 -256q0 -145 -96.5 -235t-255.5 -90h-60q-170 0 -266 100q-88 92 -88 141z" />
<glyph unicode="t" horiz-adv-x="657" d="M10 743l4 109l242 256l14 6h101q20 0 20 -20v-136q0 -20 21 -20h135q20 0 20 -20v-175q0 -20 -20 -20h-135q-20 0 -21 -21v-360q0 -47 29 -85t65 -46q31 -6 64 -12q18 -6 18 -23v-176q0 -20 -43 -20q-154 0 -268 110q-98 96 -98 252v360q0 20 -21 21h-106q-20 0 -21 20z " />
<glyph unicode="u" horiz-adv-x="978" d="M98 362v556q0 20 21 20h194q20 0 21 -20v-556q0 -63 41 -105t104 -42t105.5 43t42.5 104v556q0 20 20 20h193q20 0 20 -20v-898q0 -20 -20 -20h-174q-16 0 -21.5 20.5t-13.5 20.5q-4 0 -57.5 -20.5t-108.5 -20.5q-160 0 -263.5 101.5t-103.5 260.5z" />
<glyph unicode="v" horiz-adv-x="880" d="M-18 922q0 16 22 16h207q10 -2 18 -12l215 -564q20 55 150 431q51 145 76 145h209q23 0 22 -16q0 -3 -4 -13l-365 -897q-4 -12 -18 -12h-147q-8 4 -19 12l-362 897q-4 10 -4 13z" />
<glyph unicode="w" horiz-adv-x="1226" d="M4 920q0 18 23 18h204q16 0 21 -14l129 -566l123 566q4 14 20 14h181q16 0 20 -14l127 -566l125 566q4 14 20 14h205q23 0 23 -18v-5q-2 -2 -2 -4l-275 -897q-4 -14 -20 -14h-146q-16 0 -20 14l-146 598l-149 -598q-4 -14 -21 -14h-147q-18 0 -20 14l-273 897q0 -4 -2 9z " />
<glyph unicode="x" horiz-adv-x="837" d="M-20 922q0 16 20 16h229l17 -10l155 -250q8 -12 17 -12q8 0 14 12l158 250l16 10h232q23 0 22 -16q0 -6 -6 -17l-281 -426v-18l281 -430q4 -6 4 -15q0 -16 -20 -16h-230l-18 10l-154 248q-10 14 -18 14t-19 -14l-153 -248l-19 -10h-196q-23 0 -23 16q0 2 4 15l248 426 q2 8 2 18v6l-278 426q-4 6 -4 15z" />
<glyph unicode="y" horiz-adv-x="978" d="M98 362v556q0 20 21 20h194q20 0 21 -20v-556q0 -63 41 -105t104 -42t105.5 43t42.5 104v556q0 20 20 20h193q20 0 20 -20v-1018q0 -176 -102.5 -278.5t-278.5 -102.5q-141 0 -233 65q-53 39 -94 101q-33 51 -33 75q0 8 12 15l176 88q4 2 10 4q10 0 29 -37 q51 -96 133 -96q61 0 104.5 44t43.5 103v127q0 20 -15 21q-10 0 -55 -14.5t-78 -14.5q-172 0 -276.5 99.5t-104.5 262.5z" />
<glyph unicode="z" horiz-adv-x="880" d="M14 16q0 8 4 15l396 659q4 6 4 15q0 16 -23 16h-315q-20 0 -21 20v174q0 20 21 21h727q23 0 22 -16q0 -9 -4 -15l-397 -659q-4 -4 -4 -15q0 -16 22 -16h353q20 0 20 -20v-175q0 -20 -20 -20h-762q-23 0 -23 16z" />
<glyph unicode="{" horiz-adv-x="774" d="M20 477v178q0 16 19 21q29 6 59 12q41 10 70 47t29 86v283q0 168 98 266q49 49 126 82t142 33q43 0 43 -21v-176q0 -16 -18 -22q-33 -6 -64 -13q-37 -8 -65.5 -45t-28.5 -84v-323q0 -78 -43 -135q-74 -98 -74 -101q0 2 66 -92q51 -74 51 -154v-309q0 -47 28.5 -85 t65.5 -46q31 -6 64 -12q18 -6 18 -23v-176q0 -20 -43 -20q-66 0 -142.5 32.5t-125.5 81.5q-98 100 -98 267v284q0 47 -29 84t-70 47q-31 6 -59 13q-18 4 -19 20z" />
<glyph unicode="|" horiz-adv-x="1568" d="M59 655v174q0 20 21 21h47q20 0 20 20v58q0 164 116 273.5t282 109.5q133 0 270 -90q10 -6 14 -7q6 2 11 7q100 70 223 69h369q20 0 20 -20v-1250q0 -20 -20 -20h-195q-20 0 -20 20v1035q0 20 -21 20h-133q-61 0 -103 -42t-42 -105v-58q0 -20 20 -20h135q20 0 21 -21 v-174q0 -20 -21 -20h-135q-20 0 -20 -21v-594q0 -20 -21 -20h-195q-20 0 -20 20v594q0 20 -20 21h-259q-20 0 -20 -21v-594q0 -20 -21 -20h-194q-20 0 -21 20v594q0 20 -20 21h-47q-20 0 -21 20zM383 870q0 -20 20 -20h259q20 0 20 20v39q0 54 12 99l-4 18q-63 70 -162 70 q-61 0 -103 -42t-42 -106v-78z" />
<glyph unicode="}" horiz-adv-x="774" d="M168 -156q0 16 18 21l58 12q41 10 69.5 47t28.5 86v309q0 80 41 138q78 109 78 108l-33 45q-86 117 -86 191v323q0 49 -27.5 85t-70.5 46q-29 6 -58 13q-18 4 -18 20v176q0 20 41 21q154 0 261.5 -105.5t107.5 -275.5v-283q0 -47 27.5 -85t62 -45t65.5 -13q20 -6 21 -23 v-178q0 -16 -21 -22q-31 -6 -65.5 -13.5t-62 -45.5t-27.5 -83v-284q0 -166 -99 -267q-113 -115 -270 -114q-41 0 -41 20v176z" />
<glyph unicode="~" horiz-adv-x="1132" d="M59 655v174q0 20 21 21h47q20 0 20 20v58q0 162 114 272.5t288 110.5q96 0 184 -43t82 -43t76 43t172 43q147 0 147 -33v-4q-2 -2 -2 -4l-61 -172q-4 -14 -23 -15q-6 0 -26.5 6.5t-34.5 6.5q-61 0 -103 -43t-42 -105v-78q0 -20 20 -20h135q20 0 21 -21v-174 q0 -20 -21 -20h-135q-20 0 -20 -21v-594q0 -20 -21 -20h-195q-20 0 -20 20v594q0 20 -20 21h-259q-20 0 -20 -21v-594q0 -20 -21 -20h-194q-20 0 -21 20v594q0 20 -20 21h-47q-20 0 -21 20zM383 870q0 -20 20 -20h259q20 0 20 20v58q0 45 10 86l-6 18q-68 63 -158 64 q-61 0 -103 -42t-42 -106v-78z" />
<glyph unicode="&#xa1;" horiz-adv-x="569" d="M119 821q0 57 41 97t96 40t95 -40t40 -97t-40 -97t-95 -40q-57 0 -97 40t-40 97zM137 209l45 358q2 18 21 19h102q18 0 21 -19l47 -358v-541q0 -20 -21 -20h-194q-20 0 -21 20v541z" />
<glyph unicode="&#xa2;" d="M119 518v254q0 229 198 324q39 18 115 30q49 8 49 27v117q0 20 21 20h106q20 0 21 -20v-115q0 -18 35 -25q78 -12 104 -20q61 -18 115 -72q98 -100 98 -143q0 -10 -12 -16l-178 -88q-4 -2 -11 -3q-8 0 -16 13q-47 72 -57 84q-29 33 -62 33q-16 0 -16 -23v-500 q0 -20 12 -20q47 0 74 41q57 90 65 90q6 0 11 -2l178 -88q12 -6 12 -19q0 -29 -47 -90q-53 -70 -119 -106q-51 -29 -131 -39q-55 -6 -55 -27v-115q0 -20 -21 -20h-106q-20 0 -21 20v117q0 18 -49 25q-74 10 -115 31q-199 100 -198 325zM354 518q0 -59 34 -101t79 -42 q14 -1 14 22v496q0 23 -20 22q-41 0 -74 -43t-33 -100v-254z" />
<glyph unicode="&#xa3;" d="M-8 20v175q0 20 20 20h115q129 35 129 147v164q0 20 -20 21h-48q-20 0 -20 20v174q0 20 20 21h48q20 0 20 20v146q0 150 113 270q104 113 282 113q125 0 217 -68q55 -41 97 -100q35 -51 34 -74q0 -10 -12 -16l-178 -88q-4 -2 -10 -2q-10 0 -29 34q-53 98 -133 99 q-61 0 -104.5 -43t-43.5 -105v-166q0 -20 21 -20h135q20 0 21 -21v-174q0 -20 -21 -20h-135q-20 0 -21 -21v-184q0 -29 -11 -66.5t-11 -46.5q0 -14 20 -14h422q20 0 21 -20v-175q0 -20 -21 -20h-897q-20 0 -20 20z" />
<glyph unicode="&#xa4;" horiz-adv-x="1241" d="M68 438l202 205q-76 106 -75 242q0 135 75 241l-202 205l104 107l205 -203q106 78 244 78q139 0 247 -78l203 203l105 -107l-203 -205q76 -106 76 -241q0 -133 -76 -242l203 -205l-105 -104l-203 203q-106 -78 -245 -78q-141 0 -246 78l-205 -203zM346 885 q0 -115 81 -195t196 -80t195.5 81t80.5 194t-81.5 194.5t-194.5 81.5t-195 -82t-82 -194z" />
<glyph unicode="&#xa5;" d="M39 1276q0 14 22 14h226l18 -12l195 -401q6 -14 18 -15q12 0 19 15l194 401l19 12h227q23 0 22 -16q0 -2 -4 -14l-280 -525q-4 -6 -4 -16q0 -14 22 -14h215q20 0 21 -21v-156q0 -20 -21 -20h-291q-20 0 -20 -21v-94q0 -20 20 -20h291q20 0 21 -21v-155q0 -20 -21 -21 h-291q-20 0 -20 -20v-136q0 -20 -21 -20h-194q-20 0 -21 20v136q0 20 -20 20h-291q-20 0 -20 21v155q0 20 20 21h291q20 0 20 20v94q0 20 -20 21h-291q-20 0 -20 20v156q0 20 20 21h215q23 0 23 16q0 2 -4 14l-281 525q-4 6 -4 16z" />
<glyph unicode="&#xa6;" horiz-adv-x="1024" d="M410 -350v758h206v-758h-206zM410 674v758h206v-758h-206z" />
<glyph unicode="&#xa7;" d="M109 -240q0 8 12 15l176 88q4 2 10 4q10 0 31 -39q49 -94 131 -94h82q61 0 103 42t42 105q0 84 -78 142q-35 27 -202 108q-147 72 -213 150.5t-66 205.5v41q0 109 56 201l-3 21q-53 86 -53 190q0 170 103.5 270.5t277.5 100.5h33q139 0 231 -68q55 -41 97 -100 q35 -51 34 -74q0 -10 -12 -16l-178 -88q-4 -2 -10 -2q-10 0 -29 34q-53 98 -133 99h-33q-61 0 -103 -42t-42 -106q0 -76 78 -129q18 -10 202 -100q145 -70 212 -157t67 -220v-41q0 -96 -55 -192v-21q55 -102 55 -207q0 -164 -104.5 -263t-276.5 -99h-82q-172 0 -266 94 t-94 147zM373 487q0 -61 45 -98q72 -57 160 -94q72 -29 104 -29q14 1 14 21v55q0 84 -92 145q-23 14 -94 48q-104 47 -119 47q-18 0 -18 -54v-41z" />
<glyph unicode="&#xa8;" horiz-adv-x="1024" d="M211 1208q0 53 37 90t90 37t90 -37t37 -90t-37 -90t-90 -37q-55 0 -91 36t-36 91zM557 1208q0 53 37 90t90 37t90 -37t37 -90t-37 -90t-90 -37q-55 0 -91 36t-36 91z" />
<glyph unicode="&#xa9;" horiz-adv-x="1447" d="M168 362v566q0 164 104.5 263t276.5 99h352q172 0 276.5 -99t104.5 -263v-566q0 -164 -104.5 -263t-276.5 -99h-352q-174 0 -277.5 99.5t-103.5 262.5zM313 362q0 -96 63.5 -155.5t172.5 -59.5h352q106 0 170 59.5t64 155.5v566q0 96 -64.5 155.5t-169.5 59.5h-352 q-109 0 -172.5 -59.5t-63.5 -155.5v-566zM444 561v193q0 117 76 188.5t203 71.5q109 0 192 -66q70 -55 70 -100q0 -8 -14 -14l-107 -54q-4 -2 -8 -2q-6 0 -16 10q-45 49 -54 56q-29 25 -63 24q-51 0 -84 -32.5t-33 -81.5v-193q0 -49 33 -82t84 -33q35 0 63 25q4 4 54 57 q10 10 16 11q2 0 8 -2l107 -54q12 -6 12 -16q0 -49 -70 -105q-82 -66 -190 -65q-125 0 -202 72.5t-77 191.5z" />
<glyph unicode="&#xaa;" horiz-adv-x="677" d="M68 821v6q0 90 59 146.5t154 56.5h137l4 6v17q0 86 -94 86q-53 0 -97 -76q-8 -14 -18 -14q-6 0 -14 4l-119 61q-12 10 -12 21q0 53 69 110q80 66 191 66q125 0 201.5 -73t76.5 -191v-404q0 -25 -24 -25h-121q-25 0 -25 23l-8 4q-45 -27 -92 -27h-55q-94 0 -153.5 57.5 t-59.5 145.5zM252 821q0 -33 29 -33h55q61 0 86 74v10h-141q-29 0 -29 -30v-21z" />
<glyph unicode="&#xab;" horiz-adv-x="1175" d="M98 502v145l8 17l443 315q8 6 16 6q16 0 17 -22v-183l-9 -16l-241 -172q-10 -8 -10 -17q0 -8 10 -16l241 -174l9 -16v-181q0 -23 -17 -22q-8 0 -16 6l-443 313zM569 502v145l9 17l444 315q8 6 16 6q16 0 17 -22v-183l-8 -16l-242 -172q-10 -8 -10 -17q0 -8 10 -16 l242 -174l8 -16v-181q0 -23 -15 -22q-10 0 -18 6l-444 313z" />
<glyph unicode="&#xac;" horiz-adv-x="1705" d="M254 668v196h1198v-502h-199v306h-999z" />
<glyph unicode="&#xad;" horiz-adv-x="569" d="M80 373v192q0 20 20 21h369q20 0 20 -21v-192q0 -20 -20 -21h-369q-20 0 -20 21z" />
<glyph unicode="&#xae;" horiz-adv-x="942" d="M98 901v41q0 158 100.5 253t268.5 95h8q168 0 268.5 -95t100.5 -253v-41q0 -158 -100.5 -253t-268.5 -95h-8q-168 0 -268.5 95t-100.5 253zM160 901q0 -129 84 -208t223 -79h8q139 0 223 79t84 208v41q0 129 -84 208t-223 79h-8q-139 0 -223 -79t-84 -208v-41zM344 758 v344q0 20 21 20h129q59 0 94 -34.5t35 -94.5v-8q0 -33 -31 -67.5t-31 -43.5q0 -2 2 -6l51 -102q4 -8 4 -12q0 -16 -22 -17h-33q-14 2 -18 13l-47 108q-2 6 -19 12h-51q-20 0 -20 -20v-92q0 -20 -21 -21h-22q-20 0 -21 21zM408 948q0 -20 20 -20h66q63 -1 63 65v6 q0 66 -63 66h-66q-20 0 -20 -21v-96z" />
<glyph unicode="&#xaf;" horiz-adv-x="1024" d="M262 1139v174q0 20 21 20h467q20 0 20 -20v-174q0 -20 -20 -21h-467q-20 0 -21 21z" />
<glyph unicode="&#xb0;" horiz-adv-x="471" d="M31 1055v59q0 88 56 142.5t149 54.5q92 0 148 -54.5t56 -142.5v-59q0 -86 -56 -140.5t-148 -54.5q-94 0 -149.5 53.5t-55.5 141.5zM176 1055q0 -57 60 -58q59 1 59 58v59q0 23 -17.5 41.5t-41.5 18.5q-25 0 -42.5 -18.5t-17.5 -41.5v-59z" />
<glyph unicode="&#xb1;" horiz-adv-x="1705" d="M254 -2v199h1198v-199h-1198zM254 698v199h498v326h202v-326h498v-199h-498v-325h-202v325h-498z" />
<glyph unicode="&#xb2;" horiz-adv-x="686" d="M66 1157q0 33 62 89.5t177 56.5h47q115 0 183.5 -59.5t68.5 -158.5q0 -88 -57 -149q-43 -45 -160 -113q-78 -45 -102 -69q-39 -37 -39 -84v-13q0 -12 14 -12h322q12 0 12 -12v-105q0 -12 -12 -12h-478q-14 0 -14 12v142q0 94 60 161q53 61 177 128t124 126q0 37 -29 63 t-70 26h-47q-49 0 -77.5 -41t-30.5 -41l-9 4l-114 53q-8 2 -8 8z" />
<glyph unicode="&#xb3;" horiz-adv-x="686" d="M66 651q2 6 8 8l119 54q2 2 6 2q8 0 26 -37q23 -45 80 -45h37q41 0 69.5 25.5t28.5 62.5v43q0 37 -28.5 61.5t-69.5 24.5h-121q-14 0 -14 12v105q0 12 14 12h121q41 0 69.5 25.5t28.5 62.5v18q0 37 -28.5 63t-69.5 26h-37q-49 0 -77.5 -41t-30.5 -41l-9 4l-114 53 q-8 2 -8 8q0 33 62 89.5t177 56.5h37q115 0 183.5 -62.5t68.5 -167.5v-18q0 -49 -31 -86q-47 -57 -47 -56q0 4 43 -51q35 -45 35 -96v-35q0 -104 -67.5 -165.5t-184.5 -61.5h-37q-117 0 -178 57t-61 90z" />
<glyph unicode="&#xb4;" horiz-adv-x="1024" d="M389 1067q0 6 6 16l199 301l16 9h258q23 0 23 -19q0 -8 -8 -16l-305 -301l-15 -6h-151q-23 0 -23 16z" />
<glyph unicode="&#xb5;" horiz-adv-x="1179" d="M139 -285q0 18 6.5 118.5t6.5 182.5v904h188v-607q0 -117 14 -159q27 -84 117 -84q117 0 194.5 163.5t77.5 419.5v267h189v-672q0 -178 78 -178q88 0 88 168v28h43q2 -16 2 -45q0 -240 -185 -239q-207 0 -208 352q-90 -352 -324 -352q-184 0 -231 211v-58 q0 -129 59 -288.5t59 -188.5q0 -86 -86 -86q-88 0 -88 143z" />
<glyph unicode="&#xb6;" horiz-adv-x="1304" d="M109 537v372q0 174 103 277.5t277 103.5h658q20 0 20 -20v-1710q0 -20 -20 -21h-195q-20 0 -20 21v1495q0 20 -21 20h-137q-20 0 -20 -20v-1495q0 -20 -21 -21h-194q-20 0 -21 21v596q0 20 -20 20h-9q-170 0 -275 100.5t-105 260.5z" />
<glyph unicode="&#xb7;" horiz-adv-x="471" d="M98 647q0 57 40 97t98 40q55 0 96 -41t41 -96t-41 -96t-96 -41q-57 0 -97.5 40t-40.5 97z" />
<glyph unicode="&#xb8;" horiz-adv-x="1024" d="M297 -305q0 20 20 20h121q37 0 37 35v17q0 37 -37 36h-82q-23 0 -22 17q0 4 4 12l82 180h203l-37 -73q-4 -8 -4 -13q0 -6 6 -12q78 -70 78 -147v-17q0 -92 -63.5 -151.5t-164.5 -59.5h-121q-20 0 -20 21v135z" />
<glyph unicode="&#xb9;" horiz-adv-x="686" d="M117 1071q0 4 4 8l235 211h74q12 0 12 -12v-621q0 -12 15 -12h127q14 0 14 -12v-105q0 -12 -14 -12h-437q-14 0 -14 12v105q0 12 14 12h127q14 0 15 12v361q0 12 -13 12q-8 0 -12 -4l-39 -39q-8 -4 -10 -4q-4 0 -10 4l-84 76q-4 4 -4 8z" />
<glyph unicode="&#xba;" horiz-adv-x="657" d="M51 868v179q0 119 77 191.5t202 72.5q123 0 199.5 -74t76.5 -190v-179q0 -119 -75.5 -191.5t-200.5 -72.5q-127 0 -203 72t-76 192zM238 868q0 -41 26.5 -67.5t65.5 -26.5t65.5 27.5t26.5 66.5v179q0 39 -26.5 65.5t-65.5 26.5t-65.5 -27t-26.5 -65v-179z" />
<glyph unicode="&#xbb;" horiz-adv-x="1175" d="M121 188v181l8 16l240 174q10 8 10 16t-10 17l-240 172l-8 16v183q0 23 16 22q8 0 17 -6l442 -315l8 -17v-145l-8 -17l-442 -313q-8 -6 -17 -6q-16 0 -16 22zM594 188v181l8 16l242 174q10 8 10 16t-10 17l-242 172l-8 16v183q0 23 16 22q8 0 17 -6l442 -315l8 -17v-145 l-8 -17l-442 -313q-8 -6 -17 -6q-16 0 -16 22z" />
<glyph unicode="&#xbc;" horiz-adv-x="1957" d="M111 1085q0 4 6 9l223 196h70q14 0 14 -12v-580q0 -10 12 -10h121q12 0 12 -12v-96q0 -12 -12 -13h-416q-14 0 -14 13v96q0 12 14 12h121q12 0 12 10v336q0 14 -10 15q-6 0 -12 -7l-37 -34q-4 -4 -10 -4q-4 0 -8 4l-80 69q-6 6 -6 8zM633 16q0 2 4 13l534 1249q2 6 19 12 h110q23 0 23 -16q0 -2 -4 -12l-535 -1250q-4 -10 -18 -12h-111q-23 0 -22 16zM1335 170v96l338 453l10 4h119q12 0 13 -12v-420q0 -12 12 -12h84q14 0 14 -13v-96q0 -12 -14 -12h-84q-12 0 -12 -11v-135q0 -12 -13 -12h-123q-12 0 -12 12v135q0 10 -14 11h-303q-14 0 -15 12 zM1507 289q0 -10 13 -10h133q14 0 14 12v176q0 14 -12 14q-6 0 -13 -6l-133 -178q-2 -4 -2 -8z" />
<glyph unicode="&#xbd;" horiz-adv-x="1957" d="M111 1085q0 4 6 9l223 196h70q14 0 14 -12v-580q0 -10 12 -10h121q12 0 12 -12v-96q0 -12 -12 -13h-416q-14 0 -14 13v96q0 12 14 12h121q12 0 12 10v336q0 14 -10 15q-6 0 -12 -7l-37 -34q-4 -4 -10 -4q-4 0 -8 4l-80 69q-6 6 -6 8zM633 16q0 2 4 13l534 1249q2 6 19 12 h110q23 0 23 -16q0 -2 -4 -12l-535 -1250q-4 -10 -18 -12h-111q-23 0 -22 16zM1364 598q0 31 60.5 83t168.5 52h45q111 0 176.5 -55t65.5 -148q0 -80 -55 -139q-41 -43 -152 -104q-74 -41 -98 -66q-37 -33 -37 -78v-12q0 -10 12 -10h308q12 0 12 -12v-97q0 -12 -12 -12h-455 q-14 0 -14 12v131q0 86 57 152q51 57 169 118.5t118 116.5q0 35 -28 59.5t-67 24.5h-45q-45 0 -74.5 -37.5t-27.5 -37.5q-4 0 -8 2l-111 49q-8 6 -8 8z" />
<glyph unicode="&#xbe;" horiz-adv-x="1957" d="M61 1165q0 31 60.5 83t169.5 52h35q111 0 176 -57t65 -156v-16q0 -45 -30 -80q-43 -49 -43 -53l41 -49q33 -39 32 -88v-33q0 -98 -64.5 -155.5t-176.5 -57.5h-35q-109 0 -168.5 53.5t-59.5 85.5q0 4 9 8l110 50h8q6 0 25 -35q23 -41 76 -41h35q39 0 66.5 24.5t27.5 59.5 v39q0 35 -27.5 57.5t-66.5 22.5h-115q-14 0 -14 12v98q0 10 14 10h115q39 0 66.5 25t27.5 57v17q0 35 -27.5 59.5t-66.5 24.5h-35q-45 0 -75 -38t-28 -38q-4 0 -8 2l-110 49q-8 6 -9 8zM633 16q0 2 4 13l534 1249q2 6 19 12h110q23 0 23 -16q0 -2 -4 -12l-535 -1250 q-4 -10 -18 -12h-111q-23 0 -22 16zM1335 170v96l338 453l10 4h119q12 0 13 -12v-420q0 -12 12 -12h84q14 0 14 -13v-96q0 -12 -14 -12h-84q-12 0 -12 -11v-135q0 -12 -13 -12h-123q-12 0 -12 12v135q0 10 -14 11h-303q-14 0 -15 12zM1507 289q0 -10 13 -10h133q14 0 14 12 v176q0 14 -12 14q-6 0 -13 -6l-133 -178q-2 -4 -2 -8z" />
<glyph unicode="&#xbf;" d="M117 -10q0 123 46 196.5t159 132.5l118 62q53 35 54 94q0 16 -7.5 47t-7.5 45q0 18 21 19h196q33 0 33 -137q0 -172 -168 -259q-125 -63 -153 -86q-57 -45 -58 -114q0 -63 42 -104.5t106 -41.5h73q76 0 131 95q23 39 33 38q4 0 13 -4l178 -90q12 -6 12 -14 q0 -47 -98.5 -143.5t-268.5 -96.5h-73q-174 0 -277.5 98.5t-103.5 262.5zM440 821q0 57 41 97t97 40q55 0 96 -41t41 -96t-40 -96t-97 -41t-97.5 40t-40.5 97z" />
<glyph unicode="&#xc0;" horiz-adv-x="921" d="M-16 18q2 10 2 9l381 1249q4 14 20 14h148q16 0 20 -14l381 -1249q0 4 2 -9q0 -18 -23 -18h-206q-16 0 -21 14l-61 215q-4 12 -21 13h-293q-16 0 -20 -13l-62 -215q-4 -14 -20 -14h-205q-23 0 -22 18zM96 1730q0 16 23 17h258l16 -11l197 -301q4 -4 4 -14q0 -16 -20 -16 h-150l-14 6l-305 301q-8 8 -9 18zM362 475q0 -18 23 -18h150q23 0 22 18v4q-2 2 -2 4l-68 271q-4 12 -22 112h-6q-8 -37 -25 -112l-69 -271v-4q-2 -2 -3 -4z" />
<glyph unicode="&#xc1;" horiz-adv-x="921" d="M-16 18q2 10 2 9l381 1249q4 14 20 14h148q16 0 20 -14l381 -1249q0 4 2 -9q0 -18 -23 -18h-206q-16 0 -21 14l-61 215q-4 12 -21 13h-293q-16 0 -20 -13l-62 -215q-4 -14 -20 -14h-205q-23 0 -22 18zM340 1419q0 6 6 16l199 301l16 9h258q23 0 23 -19q0 -8 -8 -16 l-305 -301l-15 -6h-151q-23 0 -23 16zM362 475q0 -18 23 -18h150q23 0 22 18v4q-2 2 -2 4l-68 271q-4 12 -22 112h-6q-8 -37 -25 -112l-69 -271v-4q-2 -2 -3 -4z" />
<glyph unicode="&#xc2;" horiz-adv-x="921" d="M-16 18q2 10 2 9l381 1249q4 14 20 14h148q16 0 20 -14l381 -1249q0 4 2 -9q0 -18 -23 -18h-206q-16 0 -21 14l-61 215q-4 12 -21 13h-293q-16 0 -20 -13l-62 -215q-4 -14 -20 -14h-205q-23 0 -22 18zM178 1419q0 8 6 16l213 301l17 9h100l17 -9l215 -301q6 -8 6 -16 q0 -16 -23 -16h-166l-16 10l-68 104q-6 12 -14 13q-8 0 -16 -13l-66 -104l-16 -10h-166q-23 0 -23 16zM362 475q0 -18 23 -18h150q23 0 22 18v4q-2 2 -2 4l-68 271q-4 12 -22 112h-6q-8 -37 -25 -112l-69 -271v-4q-2 -2 -3 -4z" />
<glyph unicode="&#xc3;" horiz-adv-x="921" d="M-16 18q2 10 2 9l381 1249q4 14 20 14h148q16 0 20 -14l381 -1249q0 4 2 -9q0 -18 -23 -18h-206q-16 0 -21 14l-61 215q-4 12 -21 13h-293q-16 0 -20 -13l-62 -215q-4 -14 -20 -14h-205q-23 0 -22 18zM139 1534q0 23 52 88q72 90 157 90q63 0 140 -53l34 -25 q33 -23 58 -22q37 0 68.5 40.5t35.5 40.5q8 0 15 -6l81 -65q8 -6 9 -17q0 -4 -2 -10q-88 -172 -207 -172q-63 0 -144 62l-36 20q-23 20 -52 21q-33 0 -63.5 -37t-36.5 -37q-4 0 -12 4l-86 63q-10 8 -11 15zM362 475q0 -18 23 -18h150q23 0 22 18v4q-2 2 -2 4l-68 271 q-4 12 -22 112h-6q-8 -37 -25 -112l-69 -271v-4q-2 -2 -3 -4z" />
<glyph unicode="&#xc4;" horiz-adv-x="921" d="M-16 18q2 10 2 9l381 1249q4 14 20 14h148q16 0 20 -14l381 -1249q0 4 2 -9q0 -18 -23 -18h-206q-16 0 -21 14l-61 215q-4 12 -21 13h-293q-16 0 -20 -13l-62 -215q-4 -14 -20 -14h-205q-23 0 -22 18zM162 1560q0 53 37 90t90 37t90 -37t37 -90t-37 -90t-90 -37 q-55 0 -91 36t-36 91zM362 475q0 -18 23 -18h150q23 0 22 18v4q-2 2 -2 4l-68 271q-4 12 -22 112h-6q-8 -37 -25 -112l-69 -271v-4q-2 -2 -3 -4zM508 1560q0 53 37 90t90 37t90 -37t37 -90t-37 -90t-90 -37q-55 0 -91 36t-36 91z" />
<glyph unicode="&#xc5;" horiz-adv-x="921" d="M-16 18q2 10 2 9l381 1249q4 14 20 14h148q16 0 20 -14l381 -1249q0 4 2 -9q0 -18 -23 -18h-206q-16 0 -21 14l-61 215q-4 12 -21 13h-293q-16 0 -20 -13l-62 -215q-4 -14 -20 -14h-205q-23 0 -22 18zM258 1583v59q0 88 55.5 141.5t149.5 53.5t149.5 -53t55.5 -142v-59 q0 -88 -55.5 -141t-149.5 -53t-149.5 53t-55.5 141zM362 475q0 -18 23 -18h150q23 0 22 18v4q-2 2 -2 4l-68 271q-4 12 -22 112h-6q-8 -37 -25 -112l-69 -271v-4q-2 -2 -3 -4zM403 1583q0 -57 60 -57q59 0 59 57v59q0 23 -17.5 41.5t-41.5 18.5q-25 0 -42.5 -18.5 t-17.5 -41.5v-59z" />
<glyph unicode="&#xc6;" horiz-adv-x="1404" d="M-147 16q0 2 4 15l755 1259h695q20 0 20 -20v-174q0 -20 -20 -21h-488q-20 0 -20 -20v-273q0 -20 20 -20h400q20 0 20 -21v-174q0 -20 -20 -20h-400q-20 0 -20 -21v-290q0 -20 20 -21h488q20 0 20 -20v-175q0 -20 -20 -20h-723q-20 0 -21 20v242q0 20 -20 21h-273l-20 -9 l-148 -264l-18 -10h-209q-23 0 -22 16zM395 514q0 -16 23 -16h125q20 0 20 20v82q0 117 12 252l-8 2q-35 -80 -47 -104l-121 -222q-4 -12 -4 -14z" />
<glyph unicode="&#xc7;" horiz-adv-x="991" d="M109 342v606q0 164 104 263.5t276 99.5h101q139 0 231 -68q55 -41 97 -100q35 -51 34 -74q0 -10 -12 -16l-178 -88q-4 -2 -10 -2q-10 0 -29 34q-53 98 -133 99h-101q-61 0 -104 -43t-43 -105v-606q0 -61 43 -104t104 -43h101q80 0 131 98q20 39 31 39q6 0 10 -2l178 -88 q12 -6 12 -17q0 -82 -114 -162q-102 -70 -191 -81l-20 -43q-4 -8 -4 -13q0 -6 6 -12q78 -70 78 -147v-17q0 -92 -63.5 -151.5t-164.5 -59.5h-121q-20 0 -20 21v135q0 20 20 20h121q37 0 37 35v17q0 37 -37 36h-82q-23 0 -22 17q0 4 4 12l67 150q-160 16 -248.5 111 t-88.5 249z" />
<glyph unicode="&#xc8;" horiz-adv-x="978" d="M137 20v1250q0 20 21 20h723q20 0 20 -20v-174q0 -20 -20 -21h-488q-20 0 -20 -20v-273q0 -20 20 -20h400q20 0 20 -21v-174q0 -20 -20 -20h-400q-20 0 -20 -21v-290q0 -20 20 -21h488q20 0 20 -20v-175q0 -20 -20 -20h-723q-20 0 -21 20zM157 1730q0 16 23 17h258 l16 -11l197 -301q4 -4 4 -14q0 -16 -20 -16h-150l-14 6l-305 301q-8 8 -9 18z" />
<glyph unicode="&#xc9;" horiz-adv-x="978" d="M137 20v1250q0 20 21 20h723q20 0 20 -20v-174q0 -20 -20 -21h-488q-20 0 -20 -20v-273q0 -20 20 -20h400q20 0 20 -21v-174q0 -20 -20 -20h-400q-20 0 -20 -21v-290q0 -20 20 -21h488q20 0 20 -20v-175q0 -20 -20 -20h-723q-20 0 -21 20zM401 1419q0 6 6 16l199 301 l16 9h258q23 0 23 -19q0 -8 -8 -16l-305 -301l-15 -6h-151q-23 0 -23 16z" />
<glyph unicode="&#xca;" horiz-adv-x="978" d="M137 20v1250q0 20 21 20h723q20 0 20 -20v-174q0 -20 -20 -21h-488q-20 0 -20 -20v-273q0 -20 20 -20h400q20 0 20 -21v-174q0 -20 -20 -20h-400q-20 0 -20 -21v-290q0 -20 20 -21h488q20 0 20 -20v-175q0 -20 -20 -20h-723q-20 0 -21 20zM239 1419q0 8 6 16l213 301 l17 9h100l17 -9l215 -301q6 -8 6 -16q0 -16 -23 -16h-166l-16 10l-68 104q-6 12 -14 13q-8 0 -16 -13l-66 -104l-16 -10h-166q-23 0 -23 16z" />
<glyph unicode="&#xcb;" horiz-adv-x="978" d="M137 20v1250q0 20 21 20h723q20 0 20 -20v-174q0 -20 -20 -21h-488q-20 0 -20 -20v-273q0 -20 20 -20h400q20 0 20 -21v-174q0 -20 -20 -20h-400q-20 0 -20 -21v-290q0 -20 20 -21h488q20 0 20 -20v-175q0 -20 -20 -20h-723q-20 0 -21 20zM223 1560q0 53 37 90t90 37 t90 -37t37 -90t-37 -90t-90 -37q-55 0 -91 36t-36 91zM569 1560q0 53 37 90t90 37t90 -37t37 -90t-37 -90t-90 -37q-55 0 -91 36t-36 91z" />
<glyph unicode="&#xcc;" horiz-adv-x="509" d="M-111 1730q0 16 23 17h258l16 -11l197 -301q4 -4 4 -14q0 -16 -20 -16h-150l-14 6l-305 301q-8 8 -9 18zM137 20v1250q0 20 21 20h194q20 0 21 -20v-1250q0 -20 -21 -20h-194q-20 0 -21 20z" />
<glyph unicode="&#xcd;" horiz-adv-x="509" d="M133 1419q0 6 6 16l199 301l16 9h258q23 0 23 -19q0 -8 -8 -16l-305 -301l-15 -6h-151q-23 0 -23 16zM137 20v1250q0 20 21 20h194q20 0 21 -20v-1250q0 -20 -21 -20h-194q-20 0 -21 20z" />
<glyph unicode="&#xce;" horiz-adv-x="509" d="M-29 1419q0 8 6 16l213 301l17 9h100l17 -9l215 -301q6 -8 6 -16q0 -16 -23 -16h-166l-16 10l-68 104q-6 12 -14 13q-8 0 -16 -13l-66 -104l-16 -10h-166q-23 0 -23 16zM137 20v1250q0 20 21 20h194q20 0 21 -20v-1250q0 -20 -21 -20h-194q-20 0 -21 20z" />
<glyph unicode="&#xcf;" horiz-adv-x="509" d="M-45 1560q0 53 37 90t90 37t90 -37t37 -90t-37 -90t-90 -37q-55 0 -91 36t-36 91zM137 20v1250q0 20 21 20h194q20 0 21 -20v-1250q0 -20 -21 -20h-194q-20 0 -21 20zM301 1560q0 53 37 90t90 37t90 -37t37 -90t-37 -90t-90 -37q-55 0 -91 36t-36 91z" />
<glyph unicode="&#xd0;" horiz-adv-x="1067" d="M37 549v192q0 20 20 21h60q20 0 20 20v488q0 20 21 20h420q176 0 278 -102.5t102 -278.5v-528q0 -176 -102 -278.5t-278 -102.5h-420q-20 0 -21 20v488q0 20 -20 20h-60q-20 0 -20 21zM373 236q0 -20 20 -21h185q61 0 104 42t43 105v566q0 59 -43 103t-104 44h-185 q-20 0 -20 -20v-273q0 -20 20 -20h164q20 0 21 -21v-192q0 -20 -21 -21h-164q-20 0 -20 -20v-272z" />
<glyph unicode="&#xd1;" horiz-adv-x="1126" d="M137 20v1250q0 20 21 20h172l18 -10l418 -831l-4 821q0 20 16 20h189q20 0 20 -20v-1250q0 -20 -20 -20h-170l-19 10l-420 824l4 -814q0 -20 -14 -20h-190q-20 0 -21 20zM241 1534q0 23 52 88q72 90 157 90q63 0 140 -53l34 -25q33 -23 58 -22q37 0 68.5 40.5t35.5 40.5 q8 0 15 -6l81 -65q8 -6 9 -17q0 -4 -2 -10q-88 -172 -207 -172q-63 0 -144 62l-36 20q-23 20 -52 21q-33 0 -63.5 -37t-36.5 -37q-4 0 -12 4l-86 63q-10 8 -11 15z" />
<glyph unicode="&#xd2;" horiz-adv-x="1079" d="M109 342v606q0 164 104 263.5t276 99.5h101q172 0 276.5 -99.5t104.5 -263.5v-606q0 -164 -104.5 -263t-276.5 -99h-101q-172 0 -276 99t-104 263zM174 1730q0 16 23 17h258l16 -11l197 -301q4 -4 4 -14q0 -16 -20 -16h-150l-14 6l-305 301q-8 8 -9 18zM342 342 q0 -61 43 -104t104 -43h101q61 0 103 42t42 105v606q0 63 -42 105.5t-103 42.5h-101q-61 0 -104 -43t-43 -105v-606z" />
<glyph unicode="&#xd3;" horiz-adv-x="1079" d="M109 342v606q0 164 104 263.5t276 99.5h101q172 0 276.5 -99.5t104.5 -263.5v-606q0 -164 -104.5 -263t-276.5 -99h-101q-172 0 -276 99t-104 263zM342 342q0 -61 43 -104t104 -43h101q61 0 103 42t42 105v606q0 63 -42 105.5t-103 42.5h-101q-61 0 -104 -43t-43 -105 v-606zM418 1419q0 6 6 16l199 301l16 9h258q23 0 23 -19q0 -8 -8 -16l-305 -301l-15 -6h-151q-23 0 -23 16z" />
<glyph unicode="&#xd4;" horiz-adv-x="1079" d="M109 342v606q0 164 104 263.5t276 99.5h101q172 0 276.5 -99.5t104.5 -263.5v-606q0 -164 -104.5 -263t-276.5 -99h-101q-172 0 -276 99t-104 263zM256 1419q0 8 6 16l213 301l17 9h100l17 -9l215 -301q6 -8 6 -16q0 -16 -23 -16h-166l-16 10l-68 104q-6 12 -14 13 q-8 0 -16 -13l-66 -104l-16 -10h-166q-23 0 -23 16zM342 342q0 -61 43 -104t104 -43h101q61 0 103 42t42 105v606q0 63 -42 105.5t-103 42.5h-101q-61 0 -104 -43t-43 -105v-606z" />
<glyph unicode="&#xd5;" horiz-adv-x="1079" d="M109 342v606q0 164 104 263.5t276 99.5h101q172 0 276.5 -99.5t104.5 -263.5v-606q0 -164 -104.5 -263t-276.5 -99h-101q-172 0 -276 99t-104 263zM217 1534q0 23 52 88q72 90 157 90q63 0 140 -53l34 -25q33 -23 58 -22q37 0 68.5 40.5t35.5 40.5q8 0 15 -6l81 -65 q8 -6 9 -17q0 -4 -2 -10q-88 -172 -207 -172q-63 0 -144 62l-36 20q-23 20 -52 21q-33 0 -63.5 -37t-36.5 -37q-4 0 -12 4l-86 63q-10 8 -11 15zM342 342q0 -61 43 -104t104 -43h101q61 0 103 42t42 105v606q0 63 -42 105.5t-103 42.5h-101q-61 0 -104 -43t-43 -105v-606z " />
<glyph unicode="&#xd6;" horiz-adv-x="1079" d="M109 342v606q0 164 104 263.5t276 99.5h101q172 0 276.5 -99.5t104.5 -263.5v-606q0 -164 -104.5 -263t-276.5 -99h-101q-172 0 -276 99t-104 263zM240 1560q0 53 37 90t90 37t90 -37t37 -90t-37 -90t-90 -37q-55 0 -91 36t-36 91zM342 342q0 -61 43 -104t104 -43h101 q61 0 103 42t42 105v606q0 63 -42 105.5t-103 42.5h-101q-61 0 -104 -43t-43 -105v-606zM586 1560q0 53 37 90t90 37t90 -37t37 -90t-37 -90t-90 -37q-55 0 -91 36t-36 91z" />
<glyph unicode="&#xd7;" horiz-adv-x="1705" d="M276 160l451 450l-451 453l140 139l450 -450l451 450l141 -139l-450 -453l450 -450l-141 -140l-451 451l-450 -451z" />
<glyph unicode="&#xd8;" horiz-adv-x="1079" d="M109 342v606q0 164 104 263.5t276 99.5h101q172 0 276.5 -99.5t104.5 -263.5v-606q0 -164 -104.5 -263t-276.5 -99h-101q-172 0 -276 99t-104 263zM342 508q0 -25 18 -25q12 0 21 17l281 557q2 10 2 8q0 31 -74 31h-101q-61 0 -104 -43t-43 -105v-440zM406 236 q0 -41 83 -41h101q61 0 103 42t42 105v506q0 12 -12 12q-10 0 -21 -20l-292 -588q-4 -12 -4 -16z" />
<glyph unicode="&#xd9;" horiz-adv-x="1079" d="M109 342v928q0 20 20 20h193q20 0 20 -20v-928q0 -61 43 -104t104 -43h101q61 0 103 42t42 105v928q0 20 21 20h194q20 0 21 -20v-928q0 -164 -104.5 -263t-276.5 -99h-101q-172 0 -276 99t-104 263zM174 1730q0 16 23 17h258l16 -11l197 -301q4 -4 4 -14q0 -16 -20 -16 h-150l-14 6l-305 301q-8 8 -9 18z" />
<glyph unicode="&#xda;" horiz-adv-x="1079" d="M109 342v928q0 20 20 20h193q20 0 20 -20v-928q0 -61 43 -104t104 -43h101q61 0 103 42t42 105v928q0 20 21 20h194q20 0 21 -20v-928q0 -164 -104.5 -263t-276.5 -99h-101q-172 0 -276 99t-104 263zM418 1419q0 6 6 16l199 301l16 9h258q23 0 23 -19q0 -8 -8 -16 l-305 -301l-15 -6h-151q-23 0 -23 16z" />
<glyph unicode="&#xdb;" horiz-adv-x="1079" d="M109 342v928q0 20 20 20h193q20 0 20 -20v-928q0 -61 43 -104t104 -43h101q61 0 103 42t42 105v928q0 20 21 20h194q20 0 21 -20v-928q0 -164 -104.5 -263t-276.5 -99h-101q-172 0 -276 99t-104 263zM256 1419q0 8 6 16l213 301l17 9h100l17 -9l215 -301q6 -8 6 -16 q0 -16 -23 -16h-166l-16 10l-68 104q-6 12 -14 13q-8 0 -16 -13l-66 -104l-16 -10h-166q-23 0 -23 16z" />
<glyph unicode="&#xdc;" horiz-adv-x="1079" d="M109 342v928q0 20 20 20h193q20 0 20 -20v-928q0 -61 43 -104t104 -43h101q61 0 103 42t42 105v928q0 20 21 20h194q20 0 21 -20v-928q0 -164 -104.5 -263t-276.5 -99h-101q-172 0 -276 99t-104 263zM240 1560q0 53 37 90t90 37t90 -37t37 -90t-37 -90t-90 -37 q-55 0 -91 36t-36 91zM586 1560q0 53 37 90t90 37t90 -37t37 -90t-37 -90t-90 -37q-55 0 -91 36t-36 91z" />
<glyph unicode="&#xdd;" horiz-adv-x="921" d="M-20 1274q0 16 22 16h227l19 -12l194 -401q6 -14 19 -15q12 0 18 15l195 401l18 12h226q23 0 22 -16q0 -2 -4 -14l-358 -672v-568q0 -20 -21 -20h-195q-20 0 -20 20v568l-358 672q-4 12 -4 14zM340 1419q0 6 6 16l199 301l16 9h258q23 0 23 -19q0 -8 -8 -16l-305 -301 l-15 -6h-151q-23 0 -23 16z" />
<glyph unicode="&#xde;" horiz-adv-x="989" d="M137 20v1250q0 20 21 20h194q20 0 21 -20v-135q0 -20 20 -21h185q174 0 277 -103.5t103 -277.5q0 -160 -105 -261t-275 -101h-185q-20 0 -20 -21v-330q0 -20 -21 -20h-194q-20 0 -21 20zM373 608q0 -20 20 -20h185q61 0 104 43t43 104v19q0 59 -43 103t-104 44h-185 q-20 0 -20 -20v-273z" />
<glyph unicode="&#xdf;" horiz-adv-x="1005" d="M59 655v174q0 20 21 21h47q20 0 20 20v58q0 150 113 270q104 113 281 113q162 0 265 -105.5t103 -277.5v-39q0 -78 -47 -141q-70 -94 -69 -95q0 4 65 -90q51 -74 51 -155v-50q0 -168 -107.5 -273t-260.5 -105q-43 0 -43 20v176q0 16 18 21q29 6 59 12q41 10 70 47t29 86 v59q0 47 -29 84t-70 47q-31 6 -59 13q-18 4 -18 20v178q0 16 18 21q29 6 57 12q43 10 72 47t29 86v39q0 61 -42 104.5t-104 43.5q-63 0 -105 -42t-42 -106v-928q0 -20 -21 -20h-192q-20 0 -21 20v594q0 20 -20 21h-47q-20 0 -21 20z" />
<glyph unicode="&#xe0;" horiz-adv-x="968" d="M111 721q0 55 98 149q90 88 260 88q174 0 278.5 -98t104.5 -262v-578q0 -20 -21 -20h-174q-16 0 -21 19.5t-13 19.5q-4 0 -52.5 -19.5t-91.5 -19.5h-78q-127 0 -207.5 78t-80.5 196v11q0 121 80.5 197.5t207.5 76.5h197q20 0 20 19v4l-2 24q-12 137 -147 137 q-63 0 -113 -61q-8 -10 -30 -47q-12 -20 -23 -21q-4 0 -12 4l-168 89q-12 6 -12 14zM116 1378q0 16 23 17h258l16 -11l197 -301q4 -4 4 -14q0 -16 -20 -16h-150l-14 6l-305 301q-8 8 -9 18zM346 274q0 -59 55 -59h78q96 0 137 115q0 5 2 32h-217q-55 0 -55 -57v-31z" />
<glyph unicode="&#xe1;" horiz-adv-x="968" d="M111 721q0 55 98 149q90 88 260 88q174 0 278.5 -98t104.5 -262v-578q0 -20 -21 -20h-174q-16 0 -21 19.5t-13 19.5q-4 0 -52.5 -19.5t-91.5 -19.5h-78q-127 0 -207.5 78t-80.5 196v11q0 121 80.5 197.5t207.5 76.5h197q20 0 20 19v4l-2 24q-12 137 -147 137 q-63 0 -113 -61q-8 -10 -30 -47q-12 -20 -23 -21q-4 0 -12 4l-168 89q-12 6 -12 14zM346 274q0 -59 55 -59h78q96 0 137 115q0 5 2 32h-217q-55 0 -55 -57v-31zM360 1067q0 6 6 16l199 301l16 9h258q23 0 23 -19q0 -8 -8 -16l-305 -301l-15 -6h-151q-23 0 -23 16z" />
<glyph unicode="&#xe2;" horiz-adv-x="968" d="M111 721q0 55 98 149q90 88 260 88q174 0 278.5 -98t104.5 -262v-578q0 -20 -21 -20h-174q-16 0 -21 19.5t-13 19.5q-4 0 -52.5 -19.5t-91.5 -19.5h-78q-127 0 -207.5 78t-80.5 196v11q0 121 80.5 197.5t207.5 76.5h197q20 0 20 19v4l-2 24q-12 137 -147 137 q-63 0 -113 -61q-8 -10 -30 -47q-12 -20 -23 -21q-4 0 -12 4l-168 89q-12 6 -12 14zM198 1067q0 8 6 16l213 301l17 9h100l17 -9l215 -301q6 -8 6 -16q0 -16 -23 -16h-166l-16 10l-68 104q-6 12 -14 13q-8 0 -16 -13l-66 -104l-16 -10h-166q-23 0 -23 16zM346 274 q0 -59 55 -59h78q96 0 137 115q0 5 2 32h-217q-55 0 -55 -57v-31z" />
<glyph unicode="&#xe3;" horiz-adv-x="968" d="M111 721q0 55 98 149q90 88 260 88q174 0 278.5 -98t104.5 -262v-578q0 -20 -21 -20h-174q-16 0 -21 19.5t-13 19.5q-4 0 -52.5 -19.5t-91.5 -19.5h-78q-127 0 -207.5 78t-80.5 196v11q0 121 80.5 197.5t207.5 76.5h197q20 0 20 19v4l-2 24q-12 137 -147 137 q-63 0 -113 -61q-8 -10 -30 -47q-12 -20 -23 -21q-4 0 -12 4l-168 89q-12 6 -12 14zM159 1182q0 23 52 88q72 90 157 90q63 0 140 -53l34 -25q33 -23 58 -22q37 0 68.5 40.5t35.5 40.5q8 0 15 -6l81 -65q8 -6 9 -17q0 -4 -2 -10q-88 -172 -207 -172q-63 0 -144 62l-36 20 q-23 20 -52 21q-33 0 -63.5 -37t-36.5 -37q-4 0 -12 4l-86 63q-10 8 -11 15zM346 274q0 -59 55 -59h78q96 0 137 115q0 5 2 32h-217q-55 0 -55 -57v-31z" />
<glyph unicode="&#xe4;" horiz-adv-x="968" d="M111 721q0 55 98 149q90 88 260 88q174 0 278.5 -98t104.5 -262v-578q0 -20 -21 -20h-174q-16 0 -21 19.5t-13 19.5q-4 0 -52.5 -19.5t-91.5 -19.5h-78q-127 0 -207.5 78t-80.5 196v11q0 121 80.5 197.5t207.5 76.5h197q20 0 20 19v4l-2 24q-12 137 -147 137 q-63 0 -113 -61q-8 -10 -30 -47q-12 -20 -23 -21q-4 0 -12 4l-168 89q-12 6 -12 14zM182 1208q0 53 37 90t90 37t90 -37t37 -90t-37 -90t-90 -37q-55 0 -91 36t-36 91zM346 274q0 -59 55 -59h78q96 0 137 115q0 5 2 32h-217q-55 0 -55 -57v-31zM528 1208q0 53 37 90t90 37 t90 -37t37 -90t-37 -90t-90 -37q-55 0 -91 36t-36 91z" />
<glyph unicode="&#xe5;" horiz-adv-x="968" d="M111 721q0 55 98 149q90 88 260 88q174 0 278.5 -98t104.5 -262v-578q0 -20 -21 -20h-174q-16 0 -21 19.5t-13 19.5q-4 0 -52.5 -19.5t-91.5 -19.5h-78q-127 0 -207.5 78t-80.5 196v11q0 121 80.5 197.5t207.5 76.5h197q20 0 20 19v4l-2 24q-12 137 -147 137 q-63 0 -113 -61q-8 -10 -30 -47q-12 -20 -23 -21q-4 0 -12 4l-168 89q-12 6 -12 14zM279 1247v60q0 88 55 141t149 53q92 0 148.5 -54t56.5 -140v-60q0 -86 -56.5 -140t-148.5 -54q-94 0 -149 53t-55 141zM346 274q0 -59 55 -59h78q96 0 137 115q0 5 2 32h-217 q-55 0 -55 -57v-31zM424 1247q0 -57 59 -57q25 0 42.5 17t17.5 40v60q0 23 -18.5 41t-41.5 18q-25 0 -42 -18.5t-17 -40.5v-60z" />
<glyph unicode="&#xe6;" horiz-adv-x="1468" d="M88 254v39q0 119 83 196.5t212 77.5h213q20 0 20 21v4q0 61 -42 106t-103 45q-74 0 -117 -67q-4 -8 -24 -49q-10 -18 -21 -19q-4 0 -10 2l-176 88q-12 6 -12 17q0 49 97 146t263 97q102 0 190.5 -46t77.5 -46q-8 0 75 46t183 46q209 0 324 -174q57 -88 57 -188v-166 q0 -20 -20 -20h-486q-20 0 -20 -21v-47q0 -61 42 -104t103 -43q80 0 133 98q23 41 33 41q4 0 11 -4l178 -90q12 -6 12 -15q0 -49 -96.5 -147t-270.5 -98q-121 0 -200 49q-96 59 -88 59q6 0 -91 -63q-68 -45 -139 -45h-96q-131 0 -213 77.5t-82 196.5zM324 254q0 -59 59 -59 h96q84 0 133 110l4 27v26q-2 14 -20 15h-213q-59 0 -59 -60v-59zM856 625q0 -18 21 -19h243q20 0 21 19q0 45 -43 81.5t-101 36.5q-57 0 -99 -36.5t-42 -81.5z" />
<glyph unicode="&#xe7;" horiz-adv-x="878" d="M88 342v254q0 164 104.5 263t278.5 99q143 0 234 -67q53 -41 94 -100q35 -51 35 -74q0 -10 -13 -17l-178 -88q-4 -2 -10 -2q-10 0 -29 35q-53 98 -133 98q-63 0 -105 -43t-42 -104v-254q0 -61 42 -104t105 -43q80 0 131 98q20 39 31 39q6 0 10 -2l178 -88q12 -6 13 -17 q0 -20 -48 -88q-82 -119 -217 -149l-24 -49q-4 -8 -4 -13q0 -6 6 -12q78 -70 78 -147v-17q0 -92 -63.5 -151.5t-164.5 -59.5h-121q-20 0 -20 21v135q0 20 20 20h121q37 0 37 35v17q0 37 -37 36h-82q-23 0 -22 17q0 4 4 12l72 158q-281 68 -281 352z" />
<glyph unicode="&#xe8;" horiz-adv-x="940" d="M88 342v254q0 102 57 188q117 174 326 174t324 -174q57 -88 57 -188v-166q0 -20 -21 -20h-487q-20 0 -20 -21v-47q0 -61 42 -104t105 -43q80 0 131 98q20 39 31 39q6 0 10 -2l178 -88q12 -6 13 -17q0 -47 -101 -151q-90 -94 -262 -94q-174 0 -278.5 99t-104.5 263z M102 1378q0 16 23 17h258l16 -11l197 -301q4 -4 4 -14q0 -16 -20 -16h-150l-14 6l-305 301q-8 8 -9 18zM328 625q0 -18 20 -19h244q20 0 20 21q0 43 -44 79.5t-97 36.5q-57 0 -100 -36.5t-43 -81.5z" />
<glyph unicode="&#xe9;" horiz-adv-x="940" d="M88 342v254q0 102 57 188q117 174 326 174t324 -174q57 -88 57 -188v-166q0 -20 -21 -20h-487q-20 0 -20 -21v-47q0 -61 42 -104t105 -43q80 0 131 98q20 39 31 39q6 0 10 -2l178 -88q12 -6 13 -17q0 -47 -101 -151q-90 -94 -262 -94q-174 0 -278.5 99t-104.5 263z M328 625q0 -18 20 -19h244q20 0 20 21q0 43 -44 79.5t-97 36.5q-57 0 -100 -36.5t-43 -81.5zM346 1067q0 6 6 16l199 301l16 9h258q23 0 23 -19q0 -8 -8 -16l-305 -301l-15 -6h-151q-23 0 -23 16z" />
<glyph unicode="&#xea;" horiz-adv-x="940" d="M88 342v254q0 102 57 188q117 174 326 174t324 -174q57 -88 57 -188v-166q0 -20 -21 -20h-487q-20 0 -20 -21v-47q0 -61 42 -104t105 -43q80 0 131 98q20 39 31 39q6 0 10 -2l178 -88q12 -6 13 -17q0 -47 -101 -151q-90 -94 -262 -94q-174 0 -278.5 99t-104.5 263z M184 1067q0 8 6 16l213 301l17 9h100l17 -9l215 -301q6 -8 6 -16q0 -16 -23 -16h-166l-16 10l-68 104q-6 12 -14 13q-8 0 -16 -13l-66 -104l-16 -10h-166q-23 0 -23 16zM328 625q0 -18 20 -19h244q20 0 20 21q0 43 -44 79.5t-97 36.5q-57 0 -100 -36.5t-43 -81.5z" />
<glyph unicode="&#xeb;" horiz-adv-x="940" d="M88 342v254q0 102 57 188q117 174 326 174t324 -174q57 -88 57 -188v-166q0 -20 -21 -20h-487q-20 0 -20 -21v-47q0 -61 42 -104t105 -43q80 0 131 98q20 39 31 39q6 0 10 -2l178 -88q12 -6 13 -17q0 -47 -101 -151q-90 -94 -262 -94q-174 0 -278.5 99t-104.5 263z M168 1208q0 53 37 90t90 37t90 -37t37 -90t-37 -90t-90 -37q-55 0 -91 36t-36 91zM328 625q0 -18 20 -19h244q20 0 20 21q0 43 -44 79.5t-97 36.5q-57 0 -100 -36.5t-43 -81.5zM514 1208q0 53 37 90t90 37t90 -37t37 -90t-37 -90t-90 -37q-55 0 -91 36t-36 91z" />
<glyph unicode="&#xec;" horiz-adv-x="471" d="M-131 1378q0 16 23 17h258l16 -11l197 -301q4 -4 4 -14q0 -16 -20 -16h-150l-14 6l-305 301q-8 8 -9 18zM119 20v898q0 20 20 20h193q20 0 20 -20v-898q0 -20 -20 -20h-193q-20 0 -20 20z" />
<glyph unicode="&#xed;" horiz-adv-x="471" d="M113 1067q0 6 6 16l199 301l16 9h258q23 0 23 -19q0 -8 -8 -16l-305 -301l-15 -6h-151q-23 0 -23 16zM119 20v898q0 20 20 20h193q20 0 20 -20v-898q0 -20 -20 -20h-193q-20 0 -20 20z" />
<glyph unicode="&#xee;" horiz-adv-x="471" d="M-49 1067q0 8 6 16l213 301l17 9h100l17 -9l215 -301q6 -8 6 -16q0 -16 -23 -16h-166l-16 10l-68 104q-6 12 -14 13q-8 0 -16 -13l-66 -104l-16 -10h-166q-23 0 -23 16zM119 20v898q0 20 20 20h193q20 0 20 -20v-898q0 -20 -20 -20h-193q-20 0 -20 20z" />
<glyph unicode="&#xef;" horiz-adv-x="471" d="M-65 1208q0 53 37 90t90 37t90 -37t37 -90t-37 -90t-90 -37q-55 0 -91 36t-36 91zM119 20v898q0 20 20 20h193q20 0 20 -20v-898q0 -20 -20 -20h-193q-20 0 -20 20zM281 1208q0 53 37 90t90 37t90 -37t37 -90t-37 -90t-90 -37q-55 0 -91 36t-36 91z" />
<glyph unicode="&#xf0;" d="M137 342v78q0 147 101.5 254.5t246.5 107.5q53 0 107.5 -21.5t58.5 -21.5q14 0 15 23v82q0 23 -17 22q-8 0 -16 -6l-39 -26q-4 -4 -14 -5q-8 0 -15 9l-78 110q-4 4 -4 13q0 10 9 16l98 67q12 8 12 19q0 33 -84 33q-86 0 -133 -97q-18 -37 -27 -36q-4 0 -10 4l-176 88 q-12 6 -12 14q0 51 93 146.5t265 95.5q127 0 225 -66l66 -43q6 0 14 4l92 64q8 6 17 6q6 0 12 -10l74 -107q4 -4 4 -12q0 -10 -8 -17l-113 -79q-8 -8 -8 -23q0 2 4 -23.5t4 -56.5v-606q0 -162 -105.5 -262t-277.5 -100t-276.5 99t-104.5 263zM373 342q0 -61 42 -104t103 -43 t104.5 44t43.5 103v78q0 59 -43 103t-105 44q-61 0 -103 -43t-42 -104v-78z" />
<glyph unicode="&#xf1;" horiz-adv-x="999" d="M119 20v898q0 20 20 20h174q16 0 22.5 -20.5t12.5 -20.5q4 0 58.5 20.5t109.5 20.5q158 0 261.5 -101.5t103.5 -258.5v-558q0 -20 -21 -20h-194q-20 0 -21 20v558q0 61 -41 103t-104 42t-105.5 -42t-42.5 -103v-558q0 -20 -20 -20h-193q-20 0 -20 20zM176 1182 q0 23 52 88q72 90 157 90q63 0 140 -53l34 -25q33 -23 58 -22q37 0 68.5 40.5t35.5 40.5q8 0 15 -6l81 -65q8 -6 9 -17q0 -4 -2 -10q-88 -172 -207 -172q-63 0 -144 62l-36 20q-23 20 -52 21q-33 0 -63.5 -37t-36.5 -37q-4 0 -12 4l-86 63q-10 8 -11 15z" />
<glyph unicode="&#xf2;" horiz-adv-x="940" d="M88 342v254q0 164 104.5 263t278.5 99q172 0 276.5 -99t104.5 -263v-254q0 -164 -104.5 -263t-276.5 -99q-174 0 -278.5 99t-104.5 263zM102 1378q0 16 23 17h258l16 -11l197 -301q4 -4 4 -14q0 -16 -20 -16h-150l-14 6l-305 301q-8 8 -9 18zM324 342q0 -61 42 -104 t105 -43q61 0 103 43t42 104v254q0 61 -42 104t-103 43q-63 0 -105 -43t-42 -104v-254z" />
<glyph unicode="&#xf3;" horiz-adv-x="940" d="M88 342v254q0 164 104.5 263t278.5 99q172 0 276.5 -99t104.5 -263v-254q0 -164 -104.5 -263t-276.5 -99q-174 0 -278.5 99t-104.5 263zM324 342q0 -61 42 -104t105 -43q61 0 103 43t42 104v254q0 61 -42 104t-103 43q-63 0 -105 -43t-42 -104v-254zM346 1067q0 6 6 16 l199 301l16 9h258q23 0 23 -19q0 -8 -8 -16l-305 -301l-15 -6h-151q-23 0 -23 16z" />
<glyph unicode="&#xf4;" horiz-adv-x="940" d="M88 342v254q0 164 104.5 263t278.5 99q172 0 276.5 -99t104.5 -263v-254q0 -164 -104.5 -263t-276.5 -99q-174 0 -278.5 99t-104.5 263zM184 1067q0 8 6 16l213 301l17 9h100l17 -9l215 -301q6 -8 6 -16q0 -16 -23 -16h-166l-16 10l-68 104q-6 12 -14 13q-8 0 -16 -13 l-66 -104l-16 -10h-166q-23 0 -23 16zM324 342q0 -61 42 -104t105 -43q61 0 103 43t42 104v254q0 61 -42 104t-103 43q-63 0 -105 -43t-42 -104v-254z" />
<glyph unicode="&#xf5;" horiz-adv-x="940" d="M88 342v254q0 164 104.5 263t278.5 99q172 0 276.5 -99t104.5 -263v-254q0 -164 -104.5 -263t-276.5 -99q-174 0 -278.5 99t-104.5 263zM145 1182q0 23 52 88q72 90 157 90q63 0 140 -53l34 -25q33 -23 58 -22q37 0 68.5 40.5t35.5 40.5q8 0 15 -6l81 -65q8 -6 9 -17 q0 -4 -2 -10q-88 -172 -207 -172q-63 0 -144 62l-36 20q-23 20 -52 21q-33 0 -63.5 -37t-36.5 -37q-4 0 -12 4l-86 63q-10 8 -11 15zM324 342q0 -61 42 -104t105 -43q61 0 103 43t42 104v254q0 61 -42 104t-103 43q-63 0 -105 -43t-42 -104v-254z" />
<glyph unicode="&#xf6;" horiz-adv-x="940" d="M88 342v254q0 164 104.5 263t278.5 99q172 0 276.5 -99t104.5 -263v-254q0 -164 -104.5 -263t-276.5 -99q-174 0 -278.5 99t-104.5 263zM168 1208q0 53 37 90t90 37t90 -37t37 -90t-37 -90t-90 -37q-55 0 -91 36t-36 91zM324 342q0 -61 42 -104t105 -43q61 0 103 43 t42 104v254q0 61 -42 104t-103 43q-63 0 -105 -43t-42 -104v-254zM514 1208q0 53 37 90t90 37t90 -37t37 -90t-37 -90t-90 -37q-55 0 -91 36t-36 91z" />
<glyph unicode="&#xf7;" horiz-adv-x="1705" d="M254 512v199h1198v-199h-1198zM702 217q0 63 45.5 107.5t106.5 44.5t106.5 -44t45.5 -108q0 -59 -44 -104t-108 -45q-63 0 -107.5 43t-44.5 106zM702 1004q0 63 45.5 107t106.5 44t106.5 -44t45.5 -107q0 -61 -44 -106.5t-108 -45.5q-63 0 -107.5 44t-44.5 108z" />
<glyph unicode="&#xf8;" horiz-adv-x="940" d="M88 342v254q0 164 104.5 263t278.5 99q172 0 276.5 -99t104.5 -263v-254q0 -164 -104.5 -263t-276.5 -99q-174 0 -278.5 99t-104.5 263zM324 424q0 -25 18 -25q12 0 20 17l132 299q4 10 4 12q0 16 -23 16h-4q-63 0 -105 -42t-42 -105v-172zM434 211q0 -16 23 -16h14 q61 0 103 42t42 105v254q0 8 -12 8q-8 0 -12 -8l-154 -373q-4 -10 -4 -12z" />
<glyph unicode="&#xf9;" horiz-adv-x="978" d="M98 362v556q0 20 21 20h194q20 0 21 -20v-556q0 -63 41 -105t104 -42t105.5 43t42.5 104v556q0 20 20 20h193q20 0 20 -20v-898q0 -20 -20 -20h-174q-16 0 -21.5 20.5t-13.5 20.5q-4 0 -57.5 -20.5t-108.5 -20.5q-160 0 -263.5 101.5t-103.5 260.5zM122 1378q0 16 23 17 h258l16 -11l197 -301q4 -4 4 -14q0 -16 -20 -16h-150l-14 6l-305 301q-8 8 -9 18z" />
<glyph unicode="&#xfa;" horiz-adv-x="978" d="M98 362v556q0 20 21 20h194q20 0 21 -20v-556q0 -63 41 -105t104 -42t105.5 43t42.5 104v556q0 20 20 20h193q20 0 20 -20v-898q0 -20 -20 -20h-174q-16 0 -21.5 20.5t-13.5 20.5q-4 0 -57.5 -20.5t-108.5 -20.5q-160 0 -263.5 101.5t-103.5 260.5zM366 1067q0 6 6 16 l199 301l16 9h258q23 0 23 -19q0 -8 -8 -16l-305 -301l-15 -6h-151q-23 0 -23 16z" />
<glyph unicode="&#xfb;" horiz-adv-x="978" d="M98 362v556q0 20 21 20h194q20 0 21 -20v-556q0 -63 41 -105t104 -42t105.5 43t42.5 104v556q0 20 20 20h193q20 0 20 -20v-898q0 -20 -20 -20h-174q-16 0 -21.5 20.5t-13.5 20.5q-4 0 -57.5 -20.5t-108.5 -20.5q-160 0 -263.5 101.5t-103.5 260.5zM204 1067q0 8 6 16 l213 301l17 9h100l17 -9l215 -301q6 -8 6 -16q0 -16 -23 -16h-166l-16 10l-68 104q-6 12 -14 13q-8 0 -16 -13l-66 -104l-16 -10h-166q-23 0 -23 16z" />
<glyph unicode="&#xfc;" horiz-adv-x="978" d="M98 362v556q0 20 21 20h194q20 0 21 -20v-556q0 -63 41 -105t104 -42t105.5 43t42.5 104v556q0 20 20 20h193q20 0 20 -20v-898q0 -20 -20 -20h-174q-16 0 -21.5 20.5t-13.5 20.5q-4 0 -57.5 -20.5t-108.5 -20.5q-160 0 -263.5 101.5t-103.5 260.5zM188 1208q0 53 37 90 t90 37t90 -37t37 -90t-37 -90t-90 -37q-55 0 -91 36t-36 91zM534 1208q0 53 37 90t90 37t90 -37t37 -90t-37 -90t-90 -37q-55 0 -91 36t-36 91z" />
<glyph unicode="&#xfd;" horiz-adv-x="978" d="M98 362v556q0 20 21 20h194q20 0 21 -20v-556q0 -63 41 -105t104 -42t105.5 43t42.5 104v556q0 20 20 20h193q20 0 20 -20v-1018q0 -176 -102.5 -278.5t-278.5 -102.5q-141 0 -233 65q-53 39 -94 101q-33 51 -33 75q0 8 12 15l176 88q4 2 10 4q10 0 29 -37 q51 -96 133 -96q61 0 104.5 44t43.5 103v127q0 20 -15 21q-10 0 -55 -14.5t-78 -14.5q-172 0 -276.5 99.5t-104.5 262.5zM366 1067q0 6 6 16l199 301l16 9h258q23 0 23 -19q0 -8 -8 -16l-305 -301l-15 -6h-151q-23 0 -23 16z" />
<glyph unicode="&#xfe;" horiz-adv-x="968" d="M119 -440v1710q0 20 20 20h193q20 0 20 -20v-350q0 -23 15 -23q2 0 53 20.5t106 20.5q152 0 253.5 -101.5t101.5 -258.5v-216q0 -158 -102.5 -260t-260.5 -102q-43 0 -93 20.5t-58 20.5q-14 0 -15 -23v-458q0 -20 -20 -21h-193q-20 0 -20 21zM352 362q0 -61 42 -104 t106 -43q63 0 104 42t41 105v216q0 61 -41 103t-104 42t-105.5 -42t-42.5 -103v-216z" />
<glyph unicode="&#xff;" horiz-adv-x="978" d="M98 362v556q0 20 21 20h194q20 0 21 -20v-556q0 -63 41 -105t104 -42t105.5 43t42.5 104v556q0 20 20 20h193q20 0 20 -20v-1018q0 -176 -102.5 -278.5t-278.5 -102.5q-141 0 -233 65q-53 39 -94 101q-33 51 -33 75q0 8 12 15l176 88q4 2 10 4q10 0 29 -37 q51 -96 133 -96q61 0 104.5 44t43.5 103v127q0 20 -15 21q-10 0 -55 -14.5t-78 -14.5q-172 0 -276.5 99.5t-104.5 262.5zM188 1208q0 53 37 90t90 37t90 -37t37 -90t-37 -90t-90 -37q-55 0 -91 36t-36 91zM534 1208q0 53 37 90t90 37t90 -37t37 -90t-37 -90t-90 -37 q-55 0 -91 36t-36 91z" />
<glyph unicode="&#x152;" horiz-adv-x="1536" d="M109 342v606q0 164 104 263.5t276 99.5h60q68 0 127 -21h762q20 0 20 -20v-174q0 -20 -20 -21h-500q-20 0 -20 -20q0 -4 6 -39t6 -68v-166q0 -20 20 -20h400q20 0 20 -21v-174q0 -20 -20 -20h-400q-20 0 -20 -21v-184q0 -33 -6 -67.5t-6 -38.5q0 -20 20 -21h500 q20 0 20 -20v-175q0 -20 -20 -20h-762q-59 -20 -127 -20h-60q-172 0 -276 99t-104 263zM342 342q0 -61 43 -104t104 -43h60q61 0 103 42t42 105v606q0 63 -42 105.5t-103 42.5h-60q-61 0 -104 -43t-43 -105v-606z" />
<glyph unicode="&#x153;" horiz-adv-x="1468" d="M88 342v254q0 164 104.5 263t278.5 99q106 0 194.5 -45t75.5 -45q-6 0 78 45t178 45q211 0 324 -174q57 -88 57 -188v-166q0 -20 -20 -20h-486q-20 0 -20 -21v-51q0 -57 43 -100t102 -43q80 0 133 98q23 41 33 41q4 0 11 -4l178 -90q12 -6 12 -15q0 -49 -96.5 -147 t-270.5 -98q-104 0 -189 40.5t-75 40.5t-76 -40.5t-186 -40.5q-174 0 -278.5 99t-104.5 263zM324 342q0 -61 42 -104t105 -43q61 0 103 43t42 104v254q0 61 -42 104t-103 43q-63 0 -105 -43t-42 -104v-254zM850 627q0 -20 20 -21h250q20 0 21 19q0 43 -44 80.5t-100 37.5 q-96 0 -147 -106v-10z" />
<glyph unicode="&#x178;" horiz-adv-x="921" d="M-20 1274q0 16 22 16h227l19 -12l194 -401q6 -14 19 -15q12 0 18 15l195 401l18 12h226q23 0 22 -16q0 -2 -4 -14l-358 -672v-568q0 -20 -21 -20h-195q-20 0 -20 20v568l-358 672q-4 12 -4 14zM162 1560q0 53 37 90t90 37t90 -37t37 -90t-37 -90t-90 -37q-55 0 -91 36 t-36 91zM508 1560q0 53 37 90t90 37t90 -37t37 -90t-37 -90t-90 -37q-55 0 -91 36t-36 91z" />
<glyph unicode="&#x2c6;" horiz-adv-x="1024" d="M227 1067q0 8 6 16l213 301l17 9h100l17 -9l215 -301q6 -8 6 -16q0 -16 -23 -16h-166l-16 10l-68 104q-6 12 -14 13q-8 0 -16 -13l-66 -104l-16 -10h-166q-23 0 -23 16z" />
<glyph unicode="&#x2dc;" horiz-adv-x="1024" d="M188 1182q0 23 52 88q72 90 157 90q63 0 140 -53l34 -25q33 -23 58 -22q37 0 68.5 40.5t35.5 40.5q8 0 15 -6l81 -65q8 -6 9 -17q0 -4 -2 -10q-88 -172 -207 -172q-63 0 -144 62l-36 20q-23 20 -52 21q-33 0 -63.5 -37t-36.5 -37q-4 0 -12 4l-86 63q-10 8 -11 15z" />
<glyph unicode="&#x2000;" horiz-adv-x="918" />
<glyph unicode="&#x2001;" horiz-adv-x="1837" />
<glyph unicode="&#x2002;" horiz-adv-x="918" />
<glyph unicode="&#x2003;" horiz-adv-x="1837" />
<glyph unicode="&#x2004;" horiz-adv-x="612" />
<glyph unicode="&#x2005;" horiz-adv-x="459" />
<glyph unicode="&#x2006;" horiz-adv-x="306" />
<glyph unicode="&#x2007;" horiz-adv-x="306" />
<glyph unicode="&#x2008;" horiz-adv-x="229" />
<glyph unicode="&#x2009;" horiz-adv-x="367" />
<glyph unicode="&#x200a;" horiz-adv-x="102" />
<glyph unicode="&#x2010;" horiz-adv-x="569" d="M80 373v192q0 20 20 21h369q20 0 20 -21v-192q0 -20 -20 -21h-369q-20 0 -20 21z" />
<glyph unicode="&#x2011;" horiz-adv-x="569" d="M80 373v192q0 20 20 21h369q20 0 20 -21v-192q0 -20 -20 -21h-369q-20 0 -20 21z" />
<glyph unicode="&#x2012;" horiz-adv-x="569" d="M80 373v192q0 20 20 21h369q20 0 20 -21v-192q0 -20 -20 -21h-369q-20 0 -20 21z" />
<glyph unicode="&#x2013;" d="M31 430v135q0 20 20 21h936q20 0 21 -21v-135q0 -20 -21 -20h-936q-20 0 -20 20z" />
<glyph unicode="&#x2014;" horiz-adv-x="1566" d="M31 430v135q0 20 20 21h1465q20 0 20 -21v-135q0 -20 -20 -20h-1465q-20 0 -20 20z" />
<glyph unicode="&#x2018;" horiz-adv-x="387" d="M70 893v141q0 168 77.5 258t126.5 90q10 0 17 -12l53 -104q4 -6 4 -13q0 -4 -46 -40.5t-46 -88.5q0 -25 20 -24h17q20 0 20 -21v-186q0 -20 -20 -21h-203q-20 0 -20 21z" />
<glyph unicode="&#x2019;" horiz-adv-x="387" d="M43 911q0 2 44 40t44 87q0 23 -20 23h-17q-20 0 -20 20v189q0 20 20 20h203q20 0 20 -20v-142q0 -166 -76.5 -255t-125.5 -89q-8 0 -15 13l-53 102q-4 8 -4 12z" />
<glyph unicode="&#x201a;" horiz-adv-x="387" d="M43 -106q0 2 44 41.5t44 87.5q0 23 -20 22h-17q-20 0 -20 21v188q0 20 20 20h203q20 0 20 -20v-143q0 -168 -75.5 -256t-126.5 -88q-8 0 -15 10l-53 104q-4 8 -4 13z" />
<glyph unicode="&#x201c;" horiz-adv-x="708" d="M70 893v141q0 168 77.5 258t126.5 90q10 0 17 -12l53 -104q4 -6 4 -13q0 -4 -46 -40.5t-46 -88.5q0 -25 20 -24h17q20 0 20 -21v-186q0 -20 -20 -21h-203q-20 0 -20 21zM391 893v141q0 168 76 254q84 94 129 94q10 0 16 -12l54 -104q2 -4 2 -11q0 -8 -13 -18 q-49 -37 -55 -43q-25 -27 -25 -70q0 -25 21 -24h18q20 0 21 -21v-186q0 -20 -21 -21h-202q-20 0 -21 21z" />
<glyph unicode="&#x201d;" horiz-adv-x="708" d="M43 911q0 2 44 40t44 87q0 23 -20 23h-17q-20 0 -20 20v189q0 20 20 20h203q20 0 20 -20v-142q0 -166 -76.5 -255t-125.5 -89q-8 0 -15 13l-53 102q-4 8 -4 12zM362 911q0 8 15 19q76 57 76 108q0 23 -21 23h-18q-20 0 -21 20v189q0 20 21 20h204q20 0 21 -20v-142 q0 -166 -74 -251q-78 -92 -127 -93q-8 0 -14 13l-57 104z" />
<glyph unicode="&#x201e;" horiz-adv-x="708" d="M43 -106q0 2 44 41.5t44 87.5q0 23 -20 22h-17q-20 0 -20 21v188q0 20 20 20h203q20 0 20 -20v-143q0 -168 -75.5 -256t-126.5 -88q-8 0 -15 10l-53 104q-4 8 -4 13zM362 -106q0 2 45.5 41.5t45.5 87.5q0 23 -21 22h-18q-20 0 -21 21v188q0 20 21 20h204q20 0 21 -20 v-143q0 -166 -74 -252q-78 -92 -127 -92q-8 0 -14 10l-57 104q-4 8 -5 13z" />
<glyph unicode="&#x2022;" horiz-adv-x="901" d="M125 625v41q0 135 88 218t233 83h9q145 0 233 -83t88 -218v-41q0 -135 -88 -219t-233 -84h-9q-145 0 -233 83.5t-88 219.5z" />
<glyph unicode="&#x2026;" horiz-adv-x="937" d="M119 358v60q0 80 43 139q76 106 76 107q0 4 -9 14q-72 98 -75 102q-35 59 -35 119v29q0 176 104.5 279.5t278.5 103.5h57q174 0 268.5 -96.5t94.5 -145.5q0 -8 -13 -14l-176 -90l-12 -4q-8 0 -27 32q-55 102 -135 103h-57q-61 0 -104.5 -43t-43.5 -105v-28 q0 -61 43 -104.5t105 -43.5h184q20 0 21 -20v-174q0 -20 -21 -21h-184q-63 0 -105.5 -42t-42.5 -103v-70q0 -61 43 -104t105 -43h57q96 0 143 120q2 14 17 15q2 0 10 -2l178 -88q12 -6 13 -17q0 -51 -94.5 -147t-266.5 -96h-57q-176 0 -279.5 102t-103.5 276z" />
<glyph unicode="&#x202f;" horiz-adv-x="367" />
<glyph unicode="&#x2039;" horiz-adv-x="702" d="M98 502v145l8 17l443 315q8 6 16 6q16 0 17 -22v-183l-9 -16l-241 -172q-10 -8 -10 -17q0 -8 10 -16l241 -174l9 -16v-181q0 -23 -17 -22q-8 0 -16 6l-443 313z" />
<glyph unicode="&#x203a;" horiz-adv-x="702" d="M121 188v181l8 16l240 174q10 8 10 16t-10 17l-240 172l-8 16v183q0 23 16 22q8 0 17 -6l442 -315l8 -17v-145l-8 -17l-442 -313q-8 -6 -17 -6q-16 0 -16 22z" />
<glyph unicode="&#x205f;" horiz-adv-x="459" />
<glyph unicode="&#x2122;" horiz-adv-x="876" d="M82 1079v23q0 20 20 20h217q20 0 21 -20v-23q0 -20 -21 -20h-55q-20 0 -20 -21v-280q0 -20 -21 -21h-24q-20 0 -21 21v280q0 20 -20 21h-56q-20 0 -20 20zM418 758v344q0 20 20 20h25l18 -10l97 -166q10 -14 18 -14t18 14l97 166l18 10h25q20 0 20 -20v-344 q0 -20 -20 -21h-25q-20 0 -20 21v147q0 25 -21 25q-8 0 -18 -15l-52 -84l-18 -10h-8l-17 10l-55 84q-8 12 -20 13q-16 0 -17 -23v-147q0 -20 -20 -21h-25q-20 0 -20 21z" />
<glyph unicode="&#x25fc;" horiz-adv-x="942" d="M0 0v942h942v-942h-942z" />
</font>
</defs>
</svg>
